<svg width="208" height="132" viewBox="0 0 208 132" fill="none" xmlns="http://www.w3.org/2000/svg">
<rect width="208" height="132" fill="white"/>
<path d="M25.7037 58.4545H29.4963L33.502 68.2273H33.6724L37.6781 58.4545H41.4707V73H38.4877V63.5327H38.367L34.6028 72.929H32.5716L28.8074 63.4972H28.6866V73H25.7037V58.4545ZM47.0584 73.206C46.3624 73.206 45.7421 73.0852 45.1976 72.8438C44.6531 72.5975 44.2222 72.2353 43.905 71.7571C43.5925 71.2741 43.4363 70.6728 43.4363 69.9531C43.4363 69.3471 43.5475 68.8381 43.7701 68.4261C43.9926 68.0142 44.2956 67.6828 44.6792 67.4318C45.0627 67.1809 45.4983 66.9915 45.986 66.8636C46.4784 66.7358 46.9945 66.6458 47.5343 66.5938C48.1687 66.5275 48.6801 66.4659 49.0684 66.4091C49.4566 66.3475 49.7383 66.2576 49.9135 66.1392C50.0887 66.0208 50.1763 65.8456 50.1763 65.6136V65.571C50.1763 65.1212 50.0343 64.7732 49.7502 64.527C49.4708 64.2808 49.0731 64.1577 48.557 64.1577C48.0125 64.1577 47.5792 64.2784 47.2573 64.5199C46.9353 64.7566 46.7222 65.0549 46.6181 65.4148L43.8198 65.1875C43.9618 64.5246 44.2412 63.9517 44.6578 63.4688C45.0745 62.9811 45.6119 62.607 46.2701 62.3466C46.9329 62.0814 47.7 61.9489 48.5712 61.9489C49.1773 61.9489 49.7573 62.0199 50.3113 62.1619C50.87 62.304 51.3648 62.5241 51.7956 62.8224C52.2312 63.1207 52.5745 63.5043 52.8255 63.973C53.0764 64.437 53.2019 64.9934 53.2019 65.642V73H50.3326V71.4872H50.2473C50.0721 71.8281 49.8378 72.1288 49.5442 72.3892C49.2507 72.6449 48.8979 72.8461 48.486 72.9929C48.074 73.1349 47.5982 73.206 47.0584 73.206ZM47.9249 71.1179C48.37 71.1179 48.763 71.0303 49.1039 70.8551C49.4448 70.6752 49.7123 70.4337 49.9064 70.1307C50.1006 69.8277 50.1976 69.4844 50.1976 69.1009V67.9432C50.1029 68.0047 49.9727 68.0616 49.807 68.1136C49.646 68.161 49.4637 68.206 49.2601 68.2486C49.0565 68.2865 48.8529 68.322 48.6493 68.3551C48.4457 68.3835 48.2611 68.4096 48.0953 68.4332C47.7402 68.4853 47.4301 68.5682 47.165 68.6818C46.8998 68.7955 46.6938 68.9493 46.5471 69.1435C46.4003 69.3329 46.3269 69.5696 46.3269 69.8537C46.3269 70.2656 46.476 70.5805 46.7743 70.7983C47.0774 71.0114 47.4609 71.1179 47.9249 71.1179ZM59.5691 73.1776C58.7405 73.1776 57.99 72.9645 57.3176 72.5384C56.65 72.1075 56.1197 71.4754 55.7267 70.642C55.3385 69.804 55.1444 68.7765 55.1444 67.5597C55.1444 66.3097 55.3456 65.2704 55.748 64.4418C56.1505 63.6084 56.6855 62.9858 57.3532 62.5739C58.0255 62.1572 58.7618 61.9489 59.562 61.9489C60.1728 61.9489 60.6818 62.053 61.089 62.2614C61.5009 62.465 61.8323 62.7206 62.0833 63.0284C62.339 63.3314 62.5331 63.6297 62.6657 63.9233H62.758V58.4545H65.7765V73H62.7935V71.2528H62.6657C62.5236 71.5559 62.3224 71.8565 62.062 72.1548C61.8063 72.4484 61.4725 72.6922 61.0605 72.8864C60.6534 73.0805 60.1562 73.1776 59.5691 73.1776ZM60.5279 70.7699C61.0156 70.7699 61.4275 70.6373 61.7637 70.3722C62.1046 70.1023 62.365 69.7259 62.5449 69.2429C62.7296 68.7599 62.8219 68.1941 62.8219 67.5455C62.8219 66.8968 62.7319 66.3333 62.552 65.8551C62.3721 65.3769 62.1117 65.0076 61.7708 64.7472C61.4299 64.4867 61.0156 64.3565 60.5279 64.3565C60.0307 64.3565 59.6117 64.4915 59.2708 64.7614C58.9299 65.0312 58.6718 65.4053 58.4966 65.8835C58.3214 66.3617 58.2338 66.9157 58.2338 67.5455C58.2338 68.1799 58.3214 68.741 58.4966 69.2287C58.6766 69.7116 58.9346 70.0904 59.2708 70.3651C59.6117 70.6349 60.0307 70.7699 60.5279 70.7699ZM77.3407 65.2017L74.5708 65.3722C74.5235 65.1354 74.4217 64.9223 74.2654 64.733C74.1092 64.5388 73.9032 64.3849 73.6475 64.2713C73.3966 64.1529 73.0959 64.0938 72.7456 64.0938C72.2768 64.0938 71.8815 64.1932 71.5595 64.392C71.2375 64.5862 71.0765 64.8466 71.0765 65.1733C71.0765 65.4337 71.1807 65.6539 71.389 65.8338C71.5974 66.0137 71.9548 66.1581 72.4615 66.267L74.4359 66.6648C75.4965 66.8826 76.2872 67.233 76.8081 67.7159C77.3289 68.1989 77.5893 68.8333 77.5893 69.6193C77.5893 70.3343 77.3786 70.9616 76.9572 71.5014C76.5405 72.0412 75.9676 72.4626 75.2385 72.7656C74.514 73.0639 73.6783 73.2131 72.7314 73.2131C71.2872 73.2131 70.1367 72.9124 69.2797 72.3111C68.4274 71.705 67.9279 70.8812 67.7811 69.8395L70.7569 69.6832C70.8469 70.1236 71.0647 70.4598 71.4103 70.6918C71.756 70.919 72.1987 71.0327 72.7385 71.0327C73.2688 71.0327 73.6949 70.9309 74.0169 70.7273C74.3436 70.5189 74.5093 70.2514 74.514 69.9247C74.5093 69.6501 74.3933 69.4252 74.166 69.25C73.9387 69.0701 73.5884 68.9328 73.1149 68.8381L71.2257 68.4616C70.1603 68.2486 69.3672 67.8793 68.8464 67.3537C68.3303 66.8281 68.0723 66.1581 68.0723 65.3438C68.0723 64.643 68.2617 64.0393 68.6404 63.5327C69.024 63.026 69.5614 62.6354 70.2527 62.3608C70.9487 62.0862 71.7631 61.9489 72.6958 61.9489C74.0737 61.9489 75.158 62.2401 75.9487 62.8224C76.7441 63.4048 77.2082 64.1979 77.3407 65.2017ZM89.3365 73H84.1802V58.4545H89.3791C90.8422 58.4545 92.1016 58.7457 93.1575 59.3281C94.2134 59.9058 95.0254 60.7367 95.5936 61.821C96.1665 62.9053 96.4529 64.2027 96.4529 65.7131C96.4529 67.2282 96.1665 68.5303 95.5936 69.6193C95.0254 70.7083 94.2086 71.544 93.1433 72.1264C92.0827 72.7088 90.8137 73 89.3365 73ZM87.2555 70.3651H89.2086C90.1177 70.3651 90.8824 70.2041 91.5027 69.8821C92.1277 69.5554 92.5964 69.0511 92.9089 68.3693C93.2261 67.6828 93.3848 66.7973 93.3848 65.7131C93.3848 64.6383 93.2261 63.7599 92.9089 63.0781C92.5964 62.3963 92.13 61.8944 91.5098 61.5724C90.8895 61.2505 90.1248 61.0895 89.2157 61.0895H87.2555V70.3651ZM101.785 73.206C101.089 73.206 100.469 73.0852 99.9242 72.8438C99.3797 72.5975 98.9488 72.2353 98.6316 71.7571C98.3191 71.2741 98.1628 70.6728 98.1628 69.9531C98.1628 69.3471 98.2741 68.8381 98.4966 68.4261C98.7192 68.0142 99.0222 67.6828 99.4057 67.4318C99.7892 67.1809 100.225 66.9915 100.713 66.8636C101.205 66.7358 101.721 66.6458 102.261 66.5938C102.895 66.5275 103.407 66.4659 103.795 66.4091C104.183 66.3475 104.465 66.2576 104.64 66.1392C104.815 66.0208 104.903 65.8456 104.903 65.6136V65.571C104.903 65.1212 104.761 64.7732 104.477 64.527C104.197 64.2808 103.8 64.1577 103.284 64.1577C102.739 64.1577 102.306 64.2784 101.984 64.5199C101.662 64.7566 101.449 65.0549 101.345 65.4148L98.5463 65.1875C98.6884 64.5246 98.9677 63.9517 99.3844 63.4688C99.8011 62.9811 100.338 62.607 100.997 62.3466C101.66 62.0814 102.427 61.9489 103.298 61.9489C103.904 61.9489 104.484 62.0199 105.038 62.1619C105.597 62.304 106.091 62.5241 106.522 62.8224C106.958 63.1207 107.301 63.5043 107.552 63.973C107.803 64.437 107.928 64.9934 107.928 65.642V73H105.059V71.4872H104.974C104.799 71.8281 104.564 72.1288 104.271 72.3892C103.977 72.6449 103.624 72.8461 103.213 72.9929C102.801 73.1349 102.325 73.206 101.785 73.206ZM102.651 71.1179C103.097 71.1179 103.49 71.0303 103.83 70.8551C104.171 70.6752 104.439 70.4337 104.633 70.1307C104.827 69.8277 104.924 69.4844 104.924 69.1009V67.9432C104.829 68.0047 104.699 68.0616 104.534 68.1136C104.373 68.161 104.19 68.206 103.987 68.2486C103.783 68.2865 103.579 68.322 103.376 68.3551C103.172 68.3835 102.988 68.4096 102.822 68.4332C102.467 68.4853 102.157 68.5682 101.892 68.6818C101.626 68.7955 101.42 68.9493 101.274 69.1435C101.127 69.3329 101.053 69.5696 101.053 69.8537C101.053 70.2656 101.203 70.5805 101.501 70.7983C101.804 71.0114 102.187 71.1179 102.651 71.1179ZM110.276 73V62.0909H113.159V64.0156H113.287C113.514 63.3764 113.893 62.8722 114.423 62.5028C114.954 62.1335 115.588 61.9489 116.327 61.9489C117.075 61.9489 117.712 62.1359 118.237 62.5099C118.763 62.8793 119.113 63.3812 119.289 64.0156H119.402C119.625 63.3906 120.027 62.8911 120.61 62.517C121.197 62.1383 121.89 61.9489 122.691 61.9489C123.709 61.9489 124.535 62.2732 125.169 62.9219C125.808 63.5658 126.128 64.4796 126.128 65.6634V73H123.11V66.2599C123.11 65.6539 122.949 65.1993 122.627 64.8963C122.305 64.5933 121.902 64.4418 121.419 64.4418C120.87 64.4418 120.441 64.617 120.134 64.9673C119.826 65.313 119.672 65.7699 119.672 66.3381V73H116.739V66.196C116.739 65.661 116.585 65.2348 116.277 64.9176C115.974 64.6004 115.574 64.4418 115.077 64.4418C114.741 64.4418 114.438 64.527 114.168 64.6974C113.903 64.8632 113.692 65.0975 113.536 65.4006C113.379 65.6989 113.301 66.0492 113.301 66.4517V73H110.276ZM133.433 77.3182C132.453 77.3182 131.612 77.1832 130.911 76.9134C130.215 76.6482 129.661 76.286 129.249 75.8267C128.838 75.3674 128.57 74.8513 128.447 74.2784L131.245 73.902C131.33 74.1198 131.465 74.3234 131.65 74.5128C131.835 74.7022 132.079 74.8537 132.382 74.9673C132.689 75.0857 133.063 75.1449 133.504 75.1449C134.162 75.1449 134.704 74.9839 135.13 74.6619C135.561 74.3447 135.776 73.812 135.776 73.0639V71.0682H135.649C135.516 71.3712 135.317 71.6577 135.052 71.9276C134.787 72.1974 134.446 72.4176 134.029 72.5881C133.613 72.7585 133.115 72.8438 132.538 72.8438C131.719 72.8438 130.973 72.6544 130.301 72.2756C129.633 71.892 129.1 71.3073 128.703 70.5213C128.31 69.7306 128.113 68.7315 128.113 67.5241C128.113 66.2884 128.314 65.2562 128.717 64.4276C129.119 63.599 129.654 62.9787 130.322 62.5668C130.994 62.1548 131.731 61.9489 132.531 61.9489C133.142 61.9489 133.653 62.053 134.065 62.2614C134.477 62.465 134.808 62.7206 135.059 63.0284C135.315 63.3314 135.511 63.6297 135.649 63.9233H135.762V62.0909H138.767V73.1065C138.767 74.0346 138.539 74.8111 138.085 75.4361C137.63 76.0611 137 76.5298 136.195 76.8423C135.395 77.1596 134.474 77.3182 133.433 77.3182ZM133.497 70.571C133.984 70.571 134.396 70.4503 134.732 70.2088C135.073 69.9626 135.334 69.6122 135.514 69.1577C135.698 68.6984 135.791 68.1491 135.791 67.5099C135.791 66.8707 135.701 66.3168 135.521 65.848C135.341 65.3745 135.08 65.0076 134.74 64.7472C134.399 64.4867 133.984 64.3565 133.497 64.3565C132.999 64.3565 132.58 64.4915 132.24 64.7614C131.899 65.0265 131.641 65.3958 131.465 65.8693C131.29 66.3428 131.203 66.8897 131.203 67.5099C131.203 68.1397 131.29 68.6842 131.465 69.1435C131.645 69.598 131.903 69.9508 132.24 70.2017C132.58 70.4479 132.999 70.571 133.497 70.571ZM144.285 73.206C143.589 73.206 142.969 73.0852 142.424 72.8438C141.88 72.5975 141.449 72.2353 141.132 71.7571C140.819 71.2741 140.663 70.6728 140.663 69.9531C140.663 69.3471 140.774 68.8381 140.997 68.4261C141.219 68.0142 141.522 67.6828 141.906 67.4318C142.289 67.1809 142.725 66.9915 143.213 66.8636C143.705 66.7358 144.221 66.6458 144.761 66.5938C145.395 66.5275 145.907 66.4659 146.295 66.4091C146.683 66.3475 146.965 66.2576 147.14 66.1392C147.315 66.0208 147.403 65.8456 147.403 65.6136V65.571C147.403 65.1212 147.261 64.7732 146.977 64.527C146.697 64.2808 146.3 64.1577 145.784 64.1577C145.239 64.1577 144.806 64.2784 144.484 64.5199C144.162 64.7566 143.949 65.0549 143.845 65.4148L141.046 65.1875C141.188 64.5246 141.468 63.9517 141.884 63.4688C142.301 62.9811 142.838 62.607 143.497 62.3466C144.16 62.0814 144.927 61.9489 145.798 61.9489C146.404 61.9489 146.984 62.0199 147.538 62.1619C148.097 62.304 148.591 62.5241 149.022 62.8224C149.458 63.1207 149.801 63.5043 150.052 63.973C150.303 64.437 150.428 64.9934 150.428 65.642V73H147.559V71.4872H147.474C147.299 71.8281 147.064 72.1288 146.771 72.3892C146.477 72.6449 146.124 72.8461 145.713 72.9929C145.301 73.1349 144.825 73.206 144.285 73.206ZM145.151 71.1179C145.597 71.1179 145.99 71.0303 146.33 70.8551C146.671 70.6752 146.939 70.4337 147.133 70.1307C147.327 69.8277 147.424 69.4844 147.424 69.1009V67.9432C147.329 68.0047 147.199 68.0616 147.034 68.1136C146.873 68.161 146.69 68.206 146.487 68.2486C146.283 68.2865 146.079 68.322 145.876 68.3551C145.672 68.3835 145.488 68.4096 145.322 68.4332C144.967 68.4853 144.657 68.5682 144.392 68.6818C144.126 68.7955 143.92 68.9493 143.774 69.1435C143.627 69.3329 143.553 69.5696 143.553 69.8537C143.553 70.2656 143.703 70.5805 144.001 70.7983C144.304 71.0114 144.687 71.1179 145.151 71.1179ZM155.887 73.206C155.191 73.206 154.57 73.0852 154.026 72.8438C153.481 72.5975 153.05 72.2353 152.733 71.7571C152.421 71.2741 152.264 70.6728 152.264 69.9531C152.264 69.3471 152.376 68.8381 152.598 68.4261C152.821 68.0142 153.124 67.6828 153.507 67.4318C153.891 67.1809 154.326 66.9915 154.814 66.8636C155.307 66.7358 155.823 66.6458 156.362 66.5938C156.997 66.5275 157.508 66.4659 157.896 66.4091C158.285 66.3475 158.566 66.2576 158.742 66.1392C158.917 66.0208 159.004 65.8456 159.004 65.6136V65.571C159.004 65.1212 158.862 64.7732 158.578 64.527C158.299 64.2808 157.901 64.1577 157.385 64.1577C156.841 64.1577 156.407 64.2784 156.085 64.5199C155.763 64.7566 155.55 65.0549 155.446 65.4148L152.648 65.1875C152.79 64.5246 153.069 63.9517 153.486 63.4688C153.903 62.9811 154.44 62.607 155.098 62.3466C155.761 62.0814 156.528 61.9489 157.399 61.9489C158.005 61.9489 158.585 62.0199 159.139 62.1619C159.698 62.304 160.193 62.5241 160.624 62.8224C161.059 63.1207 161.403 63.5043 161.654 63.973C161.905 64.437 162.03 64.9934 162.03 65.642V73H159.161V71.4872H159.075C158.9 71.8281 158.666 72.1288 158.372 72.3892C158.079 72.6449 157.726 72.8461 157.314 72.9929C156.902 73.1349 156.426 73.206 155.887 73.206ZM156.753 71.1179C157.198 71.1179 157.591 71.0303 157.932 70.8551C158.273 70.6752 158.54 70.4337 158.735 70.1307C158.929 69.8277 159.026 69.4844 159.026 69.1009V67.9432C158.931 68.0047 158.801 68.0616 158.635 68.1136C158.474 68.161 158.292 68.206 158.088 68.2486C157.885 68.2865 157.681 68.322 157.477 68.3551C157.274 68.3835 157.089 68.4096 156.923 68.4332C156.568 68.4853 156.258 68.5682 155.993 68.6818C155.728 68.7955 155.522 68.9493 155.375 69.1435C155.228 69.3329 155.155 69.5696 155.155 69.8537C155.155 70.2656 155.304 70.5805 155.602 70.7983C155.905 71.0114 156.289 71.1179 156.753 71.1179ZM164.377 73V62.0909H167.311V63.9943H167.424C167.623 63.3172 167.957 62.8059 168.426 62.4602C168.894 62.1098 169.434 61.9347 170.045 61.9347C170.196 61.9347 170.36 61.9441 170.535 61.9631C170.71 61.982 170.864 62.008 170.997 62.0412V64.7259C170.855 64.6832 170.658 64.6454 170.407 64.6122C170.156 64.5791 169.927 64.5625 169.718 64.5625C169.273 64.5625 168.875 64.6596 168.525 64.8537C168.179 65.0431 167.905 65.3082 167.701 65.6491C167.502 65.9901 167.403 66.383 167.403 66.8281V73H164.377ZM176.073 73.1776C175.244 73.1776 174.494 72.9645 173.822 72.5384C173.154 72.1075 172.624 71.4754 172.231 70.642C171.842 69.804 171.648 68.7765 171.648 67.5597C171.648 66.3097 171.849 65.2704 172.252 64.4418C172.654 63.6084 173.189 62.9858 173.857 62.5739C174.529 62.1572 175.266 61.9489 176.066 61.9489C176.677 61.9489 177.186 62.053 177.593 62.2614C178.005 62.465 178.336 62.7206 178.587 63.0284C178.843 63.3314 179.037 63.6297 179.17 63.9233H179.262V58.4545H182.28V73H179.297V71.2528H179.17C179.028 71.5559 178.826 71.8565 178.566 72.1548C178.31 72.4484 177.976 72.6922 177.564 72.8864C177.157 73.0805 176.66 73.1776 176.073 73.1776ZM177.032 70.7699C177.519 70.7699 177.931 70.6373 178.268 70.3722C178.608 70.1023 178.869 69.7259 179.049 69.2429C179.233 68.7599 179.326 68.1941 179.326 67.5455C179.326 66.8968 179.236 66.3333 179.056 65.8551C178.876 65.3769 178.616 65.0076 178.275 64.7472C177.934 64.4867 177.519 64.3565 177.032 64.3565C176.535 64.3565 176.116 64.4915 175.775 64.7614C175.434 65.0312 175.176 65.4053 175.001 65.8835C174.825 66.3617 174.738 66.9157 174.738 67.5455C174.738 68.1799 174.825 68.741 175.001 69.2287C175.18 69.7116 175.439 70.0904 175.775 70.3651C176.116 70.6349 176.535 70.7699 177.032 70.7699Z" fill="black"/>
<path d="M25.7037 82.4545H29.4963L33.502 92.2273H33.6724L37.6781 82.4545H41.4707V97H38.4877V87.5327H38.367L34.6028 96.929H32.5716L28.8074 87.4972H28.6866V97H25.7037V82.4545ZM47.0584 97.206C46.3624 97.206 45.7421 97.0852 45.1976 96.8438C44.6531 96.5975 44.2222 96.2353 43.905 95.7571C43.5925 95.2741 43.4363 94.6728 43.4363 93.9531C43.4363 93.3471 43.5475 92.8381 43.7701 92.4261C43.9926 92.0142 44.2956 91.6828 44.6792 91.4318C45.0627 91.1809 45.4983 90.9915 45.986 90.8636C46.4784 90.7358 46.9945 90.6458 47.5343 90.5938C48.1687 90.5275 48.6801 90.4659 49.0684 90.4091C49.4566 90.3475 49.7383 90.2576 49.9135 90.1392C50.0887 90.0208 50.1763 89.8456 50.1763 89.6136V89.571C50.1763 89.1212 50.0343 88.7732 49.7502 88.527C49.4708 88.2808 49.0731 88.1577 48.557 88.1577C48.0125 88.1577 47.5792 88.2784 47.2573 88.5199C46.9353 88.7566 46.7222 89.0549 46.6181 89.4148L43.8198 89.1875C43.9618 88.5246 44.2412 87.9517 44.6578 87.4688C45.0745 86.9811 45.6119 86.607 46.2701 86.3466C46.9329 86.0814 47.7 85.9489 48.5712 85.9489C49.1773 85.9489 49.7573 86.0199 50.3113 86.1619C50.87 86.304 51.3648 86.5241 51.7956 86.8224C52.2312 87.1207 52.5745 87.5043 52.8255 87.973C53.0764 88.437 53.2019 88.9934 53.2019 89.642V97H50.3326V95.4872H50.2473C50.0721 95.8281 49.8378 96.1288 49.5442 96.3892C49.2507 96.6449 48.8979 96.8461 48.486 96.9929C48.074 97.1349 47.5982 97.206 47.0584 97.206ZM47.9249 95.1179C48.37 95.1179 48.763 95.0303 49.1039 94.8551C49.4448 94.6752 49.7123 94.4337 49.9064 94.1307C50.1006 93.8277 50.1976 93.4844 50.1976 93.1009V91.9432C50.1029 92.0047 49.9727 92.0616 49.807 92.1136C49.646 92.161 49.4637 92.206 49.2601 92.2486C49.0565 92.2865 48.8529 92.322 48.6493 92.3551C48.4457 92.3835 48.2611 92.4096 48.0953 92.4332C47.7402 92.4853 47.4301 92.5682 47.165 92.6818C46.8998 92.7955 46.6938 92.9493 46.5471 93.1435C46.4003 93.3329 46.3269 93.5696 46.3269 93.8537C46.3269 94.2656 46.476 94.5805 46.7743 94.7983C47.0774 95.0114 47.4609 95.1179 47.9249 95.1179ZM59.5691 97.1776C58.7405 97.1776 57.99 96.9645 57.3176 96.5384C56.65 96.1075 56.1197 95.4754 55.7267 94.642C55.3385 93.804 55.1444 92.7765 55.1444 91.5597C55.1444 90.3097 55.3456 89.2704 55.748 88.4418C56.1505 87.6084 56.6855 86.9858 57.3532 86.5739C58.0255 86.1572 58.7618 85.9489 59.562 85.9489C60.1728 85.9489 60.6818 86.053 61.089 86.2614C61.5009 86.465 61.8323 86.7206 62.0833 87.0284C62.339 87.3314 62.5331 87.6297 62.6657 87.9233H62.758V82.4545H65.7765V97H62.7935V95.2528H62.6657C62.5236 95.5559 62.3224 95.8565 62.062 96.1548C61.8063 96.4484 61.4725 96.6922 61.0605 96.8864C60.6534 97.0805 60.1562 97.1776 59.5691 97.1776ZM60.5279 94.7699C61.0156 94.7699 61.4275 94.6373 61.7637 94.3722C62.1046 94.1023 62.365 93.7259 62.5449 93.2429C62.7296 92.7599 62.8219 92.1941 62.8219 91.5455C62.8219 90.8968 62.7319 90.3333 62.552 89.8551C62.3721 89.3769 62.1117 89.0076 61.7708 88.7472C61.4299 88.4867 61.0156 88.3565 60.5279 88.3565C60.0307 88.3565 59.6117 88.4915 59.2708 88.7614C58.9299 89.0312 58.6718 89.4053 58.4966 89.8835C58.3214 90.3617 58.2338 90.9157 58.2338 91.5455C58.2338 92.1799 58.3214 92.741 58.4966 93.2287C58.6766 93.7116 58.9346 94.0904 59.2708 94.3651C59.6117 94.6349 60.0307 94.7699 60.5279 94.7699ZM77.3407 89.2017L74.5708 89.3722C74.5235 89.1354 74.4217 88.9223 74.2654 88.733C74.1092 88.5388 73.9032 88.3849 73.6475 88.2713C73.3966 88.1529 73.0959 88.0938 72.7456 88.0938C72.2768 88.0938 71.8815 88.1932 71.5595 88.392C71.2375 88.5862 71.0765 88.8466 71.0765 89.1733C71.0765 89.4337 71.1807 89.6539 71.389 89.8338C71.5974 90.0137 71.9548 90.1581 72.4615 90.267L74.4359 90.6648C75.4965 90.8826 76.2872 91.233 76.8081 91.7159C77.3289 92.1989 77.5893 92.8333 77.5893 93.6193C77.5893 94.3343 77.3786 94.9616 76.9572 95.5014C76.5405 96.0412 75.9676 96.4626 75.2385 96.7656C74.514 97.0639 73.6783 97.2131 72.7314 97.2131C71.2872 97.2131 70.1367 96.9124 69.2797 96.3111C68.4274 95.705 67.9279 94.8812 67.7811 93.8395L70.7569 93.6832C70.8469 94.1236 71.0647 94.4598 71.4103 94.6918C71.756 94.919 72.1987 95.0327 72.7385 95.0327C73.2688 95.0327 73.6949 94.9309 74.0169 94.7273C74.3436 94.5189 74.5093 94.2514 74.514 93.9247C74.5093 93.6501 74.3933 93.4252 74.166 93.25C73.9387 93.0701 73.5884 92.9328 73.1149 92.8381L71.2257 92.4616C70.1603 92.2486 69.3672 91.8793 68.8464 91.3537C68.3303 90.8281 68.0723 90.1581 68.0723 89.3438C68.0723 88.643 68.2617 88.0393 68.6404 87.5327C69.024 87.026 69.5614 86.6354 70.2527 86.3608C70.9487 86.0862 71.7631 85.9489 72.6958 85.9489C74.0737 85.9489 75.158 86.2401 75.9487 86.8224C76.7441 87.4048 77.2082 88.1979 77.3407 89.2017ZM89.3365 97H84.1802V82.4545H89.3791C90.8422 82.4545 92.1016 82.7457 93.1575 83.3281C94.2134 83.9058 95.0254 84.7367 95.5936 85.821C96.1665 86.9053 96.4529 88.2027 96.4529 89.7131C96.4529 91.2282 96.1665 92.5303 95.5936 93.6193C95.0254 94.7083 94.2086 95.544 93.1433 96.1264C92.0827 96.7088 90.8137 97 89.3365 97ZM87.2555 94.3651H89.2086C90.1177 94.3651 90.8824 94.2041 91.5027 93.8821C92.1277 93.5554 92.5964 93.0511 92.9089 92.3693C93.2261 91.6828 93.3848 90.7973 93.3848 89.7131C93.3848 88.6383 93.2261 87.7599 92.9089 87.0781C92.5964 86.3963 92.13 85.8944 91.5098 85.5724C90.8895 85.2505 90.1248 85.0895 89.2157 85.0895H87.2555V94.3651ZM101.785 97.206C101.089 97.206 100.469 97.0852 99.9242 96.8438C99.3797 96.5975 98.9488 96.2353 98.6316 95.7571C98.3191 95.2741 98.1628 94.6728 98.1628 93.9531C98.1628 93.3471 98.2741 92.8381 98.4966 92.4261C98.7192 92.0142 99.0222 91.6828 99.4057 91.4318C99.7892 91.1809 100.225 90.9915 100.713 90.8636C101.205 90.7358 101.721 90.6458 102.261 90.5938C102.895 90.5275 103.407 90.4659 103.795 90.4091C104.183 90.3475 104.465 90.2576 104.64 90.1392C104.815 90.0208 104.903 89.8456 104.903 89.6136V89.571C104.903 89.1212 104.761 88.7732 104.477 88.527C104.197 88.2808 103.8 88.1577 103.284 88.1577C102.739 88.1577 102.306 88.2784 101.984 88.5199C101.662 88.7566 101.449 89.0549 101.345 89.4148L98.5463 89.1875C98.6884 88.5246 98.9677 87.9517 99.3844 87.4688C99.8011 86.9811 100.338 86.607 100.997 86.3466C101.66 86.0814 102.427 85.9489 103.298 85.9489C103.904 85.9489 104.484 86.0199 105.038 86.1619C105.597 86.304 106.091 86.5241 106.522 86.8224C106.958 87.1207 107.301 87.5043 107.552 87.973C107.803 88.437 107.928 88.9934 107.928 89.642V97H105.059V95.4872H104.974C104.799 95.8281 104.564 96.1288 104.271 96.3892C103.977 96.6449 103.624 96.8461 103.213 96.9929C102.801 97.1349 102.325 97.206 101.785 97.206ZM102.651 95.1179C103.097 95.1179 103.49 95.0303 103.83 94.8551C104.171 94.6752 104.439 94.4337 104.633 94.1307C104.827 93.8277 104.924 93.4844 104.924 93.1009V91.9432C104.829 92.0047 104.699 92.0616 104.534 92.1136C104.373 92.161 104.19 92.206 103.987 92.2486C103.783 92.2865 103.579 92.322 103.376 92.3551C103.172 92.3835 102.988 92.4096 102.822 92.4332C102.467 92.4853 102.157 92.5682 101.892 92.6818C101.626 92.7955 101.42 92.9493 101.274 93.1435C101.127 93.3329 101.053 93.5696 101.053 93.8537C101.053 94.2656 101.203 94.5805 101.501 94.7983C101.804 95.0114 102.187 95.1179 102.651 95.1179ZM110.276 97V86.0909H113.159V88.0156H113.287C113.514 87.3764 113.893 86.8722 114.423 86.5028C114.954 86.1335 115.588 85.9489 116.327 85.9489C117.075 85.9489 117.712 86.1359 118.237 86.5099C118.763 86.8793 119.113 87.3812 119.289 88.0156H119.402C119.625 87.3906 120.027 86.8911 120.61 86.517C121.197 86.1383 121.89 85.9489 122.691 85.9489C123.709 85.9489 124.535 86.2732 125.169 86.9219C125.808 87.5658 126.128 88.4796 126.128 89.6634V97H123.11V90.2599C123.11 89.6539 122.949 89.1993 122.627 88.8963C122.305 88.5933 121.902 88.4418 121.419 88.4418C120.87 88.4418 120.441 88.617 120.134 88.9673C119.826 89.313 119.672 89.7699 119.672 90.3381V97H116.739V90.196C116.739 89.661 116.585 89.2348 116.277 88.9176C115.974 88.6004 115.574 88.4418 115.077 88.4418C114.741 88.4418 114.438 88.527 114.168 88.6974C113.903 88.8632 113.692 89.0975 113.536 89.4006C113.379 89.6989 113.301 90.0492 113.301 90.4517V97H110.276ZM133.433 101.318C132.453 101.318 131.612 101.183 130.911 100.913C130.215 100.648 129.661 100.286 129.249 99.8267C128.838 99.3674 128.57 98.8513 128.447 98.2784L131.245 97.902C131.33 98.1198 131.465 98.3234 131.65 98.5128C131.835 98.7022 132.079 98.8537 132.382 98.9673C132.689 99.0857 133.063 99.1449 133.504 99.1449C134.162 99.1449 134.704 98.9839 135.13 98.6619C135.561 98.3447 135.776 97.812 135.776 97.0639V95.0682H135.649C135.516 95.3712 135.317 95.6577 135.052 95.9276C134.787 96.1974 134.446 96.4176 134.029 96.5881C133.613 96.7585 133.115 96.8438 132.538 96.8438C131.719 96.8438 130.973 96.6544 130.301 96.2756C129.633 95.892 129.1 95.3073 128.703 94.5213C128.31 93.7306 128.113 92.7315 128.113 91.5241C128.113 90.2884 128.314 89.2562 128.717 88.4276C129.119 87.599 129.654 86.9787 130.322 86.5668C130.994 86.1548 131.731 85.9489 132.531 85.9489C133.142 85.9489 133.653 86.053 134.065 86.2614C134.477 86.465 134.808 86.7206 135.059 87.0284C135.315 87.3314 135.511 87.6297 135.649 87.9233H135.762V86.0909H138.767V97.1065C138.767 98.0346 138.539 98.8111 138.085 99.4361C137.63 100.061 137 100.53 136.195 100.842C135.395 101.16 134.474 101.318 133.433 101.318ZM133.497 94.571C133.984 94.571 134.396 94.4503 134.732 94.2088C135.073 93.9626 135.334 93.6122 135.514 93.1577C135.698 92.6984 135.791 92.1491 135.791 91.5099C135.791 90.8707 135.701 90.3168 135.521 89.848C135.341 89.3745 135.08 89.0076 134.74 88.7472C134.399 88.4867 133.984 88.3565 133.497 88.3565C132.999 88.3565 132.58 88.4915 132.24 88.7614C131.899 89.0265 131.641 89.3958 131.465 89.8693C131.29 90.3428 131.203 90.8897 131.203 91.5099C131.203 92.1397 131.29 92.6842 131.465 93.1435C131.645 93.598 131.903 93.9508 132.24 94.2017C132.58 94.4479 132.999 94.571 133.497 94.571ZM144.285 97.206C143.589 97.206 142.969 97.0852 142.424 96.8438C141.88 96.5975 141.449 96.2353 141.132 95.7571C140.819 95.2741 140.663 94.6728 140.663 93.9531C140.663 93.3471 140.774 92.8381 140.997 92.4261C141.219 92.0142 141.522 91.6828 141.906 91.4318C142.289 91.1809 142.725 90.9915 143.213 90.8636C143.705 90.7358 144.221 90.6458 144.761 90.5938C145.395 90.5275 145.907 90.4659 146.295 90.4091C146.683 90.3475 146.965 90.2576 147.14 90.1392C147.315 90.0208 147.403 89.8456 147.403 89.6136V89.571C147.403 89.1212 147.261 88.7732 146.977 88.527C146.697 88.2808 146.3 88.1577 145.784 88.1577C145.239 88.1577 144.806 88.2784 144.484 88.5199C144.162 88.7566 143.949 89.0549 143.845 89.4148L141.046 89.1875C141.188 88.5246 141.468 87.9517 141.884 87.4688C142.301 86.9811 142.838 86.607 143.497 86.3466C144.16 86.0814 144.927 85.9489 145.798 85.9489C146.404 85.9489 146.984 86.0199 147.538 86.1619C148.097 86.304 148.591 86.5241 149.022 86.8224C149.458 87.1207 149.801 87.5043 150.052 87.973C150.303 88.437 150.428 88.9934 150.428 89.642V97H147.559V95.4872H147.474C147.299 95.8281 147.064 96.1288 146.771 96.3892C146.477 96.6449 146.124 96.8461 145.713 96.9929C145.301 97.1349 144.825 97.206 144.285 97.206ZM145.151 95.1179C145.597 95.1179 145.99 95.0303 146.33 94.8551C146.671 94.6752 146.939 94.4337 147.133 94.1307C147.327 93.8277 147.424 93.4844 147.424 93.1009V91.9432C147.329 92.0047 147.199 92.0616 147.034 92.1136C146.873 92.161 146.69 92.206 146.487 92.2486C146.283 92.2865 146.079 92.322 145.876 92.3551C145.672 92.3835 145.488 92.4096 145.322 92.4332C144.967 92.4853 144.657 92.5682 144.392 92.6818C144.126 92.7955 143.92 92.9493 143.774 93.1435C143.627 93.3329 143.553 93.5696 143.553 93.8537C143.553 94.2656 143.703 94.5805 144.001 94.7983C144.304 95.0114 144.687 95.1179 145.151 95.1179ZM155.887 97.206C155.191 97.206 154.57 97.0852 154.026 96.8438C153.481 96.5975 153.05 96.2353 152.733 95.7571C152.421 95.2741 152.264 94.6728 152.264 93.9531C152.264 93.3471 152.376 92.8381 152.598 92.4261C152.821 92.0142 153.124 91.6828 153.507 91.4318C153.891 91.1809 154.326 90.9915 154.814 90.8636C155.307 90.7358 155.823 90.6458 156.362 90.5938C156.997 90.5275 157.508 90.4659 157.896 90.4091C158.285 90.3475 158.566 90.2576 158.742 90.1392C158.917 90.0208 159.004 89.8456 159.004 89.6136V89.571C159.004 89.1212 158.862 88.7732 158.578 88.527C158.299 88.2808 157.901 88.1577 157.385 88.1577C156.841 88.1577 156.407 88.2784 156.085 88.5199C155.763 88.7566 155.55 89.0549 155.446 89.4148L152.648 89.1875C152.79 88.5246 153.069 87.9517 153.486 87.4688C153.903 86.9811 154.44 86.607 155.098 86.3466C155.761 86.0814 156.528 85.9489 157.399 85.9489C158.005 85.9489 158.585 86.0199 159.139 86.1619C159.698 86.304 160.193 86.5241 160.624 86.8224C161.059 87.1207 161.403 87.5043 161.654 87.973C161.905 88.437 162.03 88.9934 162.03 89.642V97H159.161V95.4872H159.075C158.9 95.8281 158.666 96.1288 158.372 96.3892C158.079 96.6449 157.726 96.8461 157.314 96.9929C156.902 97.1349 156.426 97.206 155.887 97.206ZM156.753 95.1179C157.198 95.1179 157.591 95.0303 157.932 94.8551C158.273 94.6752 158.54 94.4337 158.735 94.1307C158.929 93.8277 159.026 93.4844 159.026 93.1009V91.9432C158.931 92.0047 158.801 92.0616 158.635 92.1136C158.474 92.161 158.292 92.206 158.088 92.2486C157.885 92.2865 157.681 92.322 157.477 92.3551C157.274 92.3835 157.089 92.4096 156.923 92.4332C156.568 92.4853 156.258 92.5682 155.993 92.6818C155.728 92.7955 155.522 92.9493 155.375 93.1435C155.228 93.3329 155.155 93.5696 155.155 93.8537C155.155 94.2656 155.304 94.5805 155.602 94.7983C155.905 95.0114 156.289 95.1179 156.753 95.1179ZM164.377 97V86.0909H167.311V87.9943H167.424C167.623 87.3172 167.957 86.8059 168.426 86.4602C168.894 86.1098 169.434 85.9347 170.045 85.9347C170.196 85.9347 170.36 85.9441 170.535 85.9631C170.71 85.982 170.864 86.008 170.997 86.0412V88.7259C170.855 88.6832 170.658 88.6454 170.407 88.6122C170.156 88.5791 169.927 88.5625 169.718 88.5625C169.273 88.5625 168.875 88.6596 168.525 88.8537C168.179 89.0431 167.905 89.3082 167.701 89.6491C167.502 89.9901 167.403 90.383 167.403 90.8281V97H164.377ZM176.073 97.1776C175.244 97.1776 174.494 96.9645 173.822 96.5384C173.154 96.1075 172.624 95.4754 172.231 94.642C171.842 93.804 171.648 92.7765 171.648 91.5597C171.648 90.3097 171.849 89.2704 172.252 88.4418C172.654 87.6084 173.189 86.9858 173.857 86.5739C174.529 86.1572 175.266 85.9489 176.066 85.9489C176.677 85.9489 177.186 86.053 177.593 86.2614C178.005 86.465 178.336 86.7206 178.587 87.0284C178.843 87.3314 179.037 87.6297 179.17 87.9233H179.262V82.4545H182.28V97H179.297V95.2528H179.17C179.028 95.5559 178.826 95.8565 178.566 96.1548C178.31 96.4484 177.976 96.6922 177.564 96.8864C177.157 97.0805 176.66 97.1776 176.073 97.1776ZM177.032 94.7699C177.519 94.7699 177.931 94.6373 178.268 94.3722C178.608 94.1023 178.869 93.7259 179.049 93.2429C179.233 92.7599 179.326 92.1941 179.326 91.5455C179.326 90.8968 179.236 90.3333 179.056 89.8551C178.876 89.3769 178.616 89.0076 178.275 88.7472C177.934 88.4867 177.519 88.3565 177.032 88.3565C176.535 88.3565 176.116 88.4915 175.775 88.7614C175.434 89.0312 175.176 89.4053 175.001 89.8835C174.825 90.3617 174.738 90.9157 174.738 91.5455C174.738 92.1799 174.825 92.741 175.001 93.2287C175.18 93.7116 175.439 94.0904 175.775 94.3651C176.116 94.6349 176.535 94.7699 177.032 94.7699Z" fill="#686868"/>
<path d="M25.7037 106.455H29.4963L33.502 116.227H33.6724L37.6781 106.455H41.4707V121H38.4877V111.533H38.367L34.6028 120.929H32.5716L28.8074 111.497H28.6866V121H25.7037V106.455ZM47.0584 121.206C46.3624 121.206 45.7421 121.085 45.1976 120.844C44.6531 120.598 44.2222 120.235 43.905 119.757C43.5925 119.274 43.4363 118.673 43.4363 117.953C43.4363 117.347 43.5475 116.838 43.7701 116.426C43.9926 116.014 44.2956 115.683 44.6792 115.432C45.0627 115.181 45.4983 114.991 45.986 114.864C46.4784 114.736 46.9945 114.646 47.5343 114.594C48.1687 114.527 48.6801 114.466 49.0684 114.409C49.4566 114.348 49.7383 114.258 49.9135 114.139C50.0887 114.021 50.1763 113.846 50.1763 113.614V113.571C50.1763 113.121 50.0343 112.773 49.7502 112.527C49.4708 112.281 49.0731 112.158 48.557 112.158C48.0125 112.158 47.5792 112.278 47.2573 112.52C46.9353 112.757 46.7222 113.055 46.6181 113.415L43.8198 113.188C43.9618 112.525 44.2412 111.952 44.6578 111.469C45.0745 110.981 45.6119 110.607 46.2701 110.347C46.9329 110.081 47.7 109.949 48.5712 109.949C49.1773 109.949 49.7573 110.02 50.3113 110.162C50.87 110.304 51.3648 110.524 51.7956 110.822C52.2312 111.121 52.5745 111.504 52.8255 111.973C53.0764 112.437 53.2019 112.993 53.2019 113.642V121H50.3326V119.487H50.2473C50.0721 119.828 49.8378 120.129 49.5442 120.389C49.2507 120.645 48.8979 120.846 48.486 120.993C48.074 121.135 47.5982 121.206 47.0584 121.206ZM47.9249 119.118C48.37 119.118 48.763 119.03 49.1039 118.855C49.4448 118.675 49.7123 118.434 49.9064 118.131C50.1006 117.828 50.1976 117.484 50.1976 117.101V115.943C50.1029 116.005 49.9727 116.062 49.807 116.114C49.646 116.161 49.4637 116.206 49.2601 116.249C49.0565 116.286 48.8529 116.322 48.6493 116.355C48.4457 116.384 48.2611 116.41 48.0953 116.433C47.7402 116.485 47.4301 116.568 47.165 116.682C46.8998 116.795 46.6938 116.949 46.5471 117.143C46.4003 117.333 46.3269 117.57 46.3269 117.854C46.3269 118.266 46.476 118.58 46.7743 118.798C47.0774 119.011 47.4609 119.118 47.9249 119.118ZM59.5691 121.178C58.7405 121.178 57.99 120.964 57.3176 120.538C56.65 120.107 56.1197 119.475 55.7267 118.642C55.3385 117.804 55.1444 116.777 55.1444 115.56C55.1444 114.31 55.3456 113.27 55.748 112.442C56.1505 111.608 56.6855 110.986 57.3532 110.574C58.0255 110.157 58.7618 109.949 59.562 109.949C60.1728 109.949 60.6818 110.053 61.089 110.261C61.5009 110.465 61.8323 110.721 62.0833 111.028C62.339 111.331 62.5331 111.63 62.6657 111.923H62.758V106.455H65.7765V121H62.7935V119.253H62.6657C62.5236 119.556 62.3224 119.857 62.062 120.155C61.8063 120.448 61.4725 120.692 61.0605 120.886C60.6534 121.08 60.1562 121.178 59.5691 121.178ZM60.5279 118.77C61.0156 118.77 61.4275 118.637 61.7637 118.372C62.1046 118.102 62.365 117.726 62.5449 117.243C62.7296 116.76 62.8219 116.194 62.8219 115.545C62.8219 114.897 62.7319 114.333 62.552 113.855C62.3721 113.377 62.1117 113.008 61.7708 112.747C61.4299 112.487 61.0156 112.357 60.5279 112.357C60.0307 112.357 59.6117 112.491 59.2708 112.761C58.9299 113.031 58.6718 113.405 58.4966 113.884C58.3214 114.362 58.2338 114.916 58.2338 115.545C58.2338 116.18 58.3214 116.741 58.4966 117.229C58.6766 117.712 58.9346 118.09 59.2708 118.365C59.6117 118.635 60.0307 118.77 60.5279 118.77ZM77.3407 113.202L74.5708 113.372C74.5235 113.135 74.4217 112.922 74.2654 112.733C74.1092 112.539 73.9032 112.385 73.6475 112.271C73.3966 112.153 73.0959 112.094 72.7456 112.094C72.2768 112.094 71.8815 112.193 71.5595 112.392C71.2375 112.586 71.0765 112.847 71.0765 113.173C71.0765 113.434 71.1807 113.654 71.389 113.834C71.5974 114.014 71.9548 114.158 72.4615 114.267L74.4359 114.665C75.4965 114.883 76.2872 115.233 76.8081 115.716C77.3289 116.199 77.5893 116.833 77.5893 117.619C77.5893 118.334 77.3786 118.962 76.9572 119.501C76.5405 120.041 75.9676 120.463 75.2385 120.766C74.514 121.064 73.6783 121.213 72.7314 121.213C71.2872 121.213 70.1367 120.912 69.2797 120.311C68.4274 119.705 67.9279 118.881 67.7811 117.839L70.7569 117.683C70.8469 118.124 71.0647 118.46 71.4103 118.692C71.756 118.919 72.1987 119.033 72.7385 119.033C73.2688 119.033 73.6949 118.931 74.0169 118.727C74.3436 118.519 74.5093 118.251 74.514 117.925C74.5093 117.65 74.3933 117.425 74.166 117.25C73.9387 117.07 73.5884 116.933 73.1149 116.838L71.2257 116.462C70.1603 116.249 69.3672 115.879 68.8464 115.354C68.3303 114.828 68.0723 114.158 68.0723 113.344C68.0723 112.643 68.2617 112.039 68.6404 111.533C69.024 111.026 69.5614 110.635 70.2527 110.361C70.9487 110.086 71.7631 109.949 72.6958 109.949C74.0737 109.949 75.158 110.24 75.9487 110.822C76.7441 111.405 77.2082 112.198 77.3407 113.202ZM89.3365 121H84.1802V106.455H89.3791C90.8422 106.455 92.1016 106.746 93.1575 107.328C94.2134 107.906 95.0254 108.737 95.5936 109.821C96.1665 110.905 96.4529 112.203 96.4529 113.713C96.4529 115.228 96.1665 116.53 95.5936 117.619C95.0254 118.708 94.2086 119.544 93.1433 120.126C92.0827 120.709 90.8137 121 89.3365 121ZM87.2555 118.365H89.2086C90.1177 118.365 90.8824 118.204 91.5027 117.882C92.1277 117.555 92.5964 117.051 92.9089 116.369C93.2261 115.683 93.3848 114.797 93.3848 113.713C93.3848 112.638 93.2261 111.76 92.9089 111.078C92.5964 110.396 92.13 109.894 91.5098 109.572C90.8895 109.25 90.1248 109.089 89.2157 109.089H87.2555V118.365ZM101.785 121.206C101.089 121.206 100.469 121.085 99.9242 120.844C99.3797 120.598 98.9488 120.235 98.6316 119.757C98.3191 119.274 98.1628 118.673 98.1628 117.953C98.1628 117.347 98.2741 116.838 98.4966 116.426C98.7192 116.014 99.0222 115.683 99.4057 115.432C99.7892 115.181 100.225 114.991 100.713 114.864C101.205 114.736 101.721 114.646 102.261 114.594C102.895 114.527 103.407 114.466 103.795 114.409C104.183 114.348 104.465 114.258 104.64 114.139C104.815 114.021 104.903 113.846 104.903 113.614V113.571C104.903 113.121 104.761 112.773 104.477 112.527C104.197 112.281 103.8 112.158 103.284 112.158C102.739 112.158 102.306 112.278 101.984 112.52C101.662 112.757 101.449 113.055 101.345 113.415L98.5463 113.188C98.6884 112.525 98.9677 111.952 99.3844 111.469C99.8011 110.981 100.338 110.607 100.997 110.347C101.66 110.081 102.427 109.949 103.298 109.949C103.904 109.949 104.484 110.02 105.038 110.162C105.597 110.304 106.091 110.524 106.522 110.822C106.958 111.121 107.301 111.504 107.552 111.973C107.803 112.437 107.928 112.993 107.928 113.642V121H105.059V119.487H104.974C104.799 119.828 104.564 120.129 104.271 120.389C103.977 120.645 103.624 120.846 103.213 120.993C102.801 121.135 102.325 121.206 101.785 121.206ZM102.651 119.118C103.097 119.118 103.49 119.03 103.83 118.855C104.171 118.675 104.439 118.434 104.633 118.131C104.827 117.828 104.924 117.484 104.924 117.101V115.943C104.829 116.005 104.699 116.062 104.534 116.114C104.373 116.161 104.19 116.206 103.987 116.249C103.783 116.286 103.579 116.322 103.376 116.355C103.172 116.384 102.988 116.41 102.822 116.433C102.467 116.485 102.157 116.568 101.892 116.682C101.626 116.795 101.42 116.949 101.274 117.143C101.127 117.333 101.053 117.57 101.053 117.854C101.053 118.266 101.203 118.58 101.501 118.798C101.804 119.011 102.187 119.118 102.651 119.118ZM110.276 121V110.091H113.159V112.016H113.287C113.514 111.376 113.893 110.872 114.423 110.503C114.954 110.134 115.588 109.949 116.327 109.949C117.075 109.949 117.712 110.136 118.237 110.51C118.763 110.879 119.113 111.381 119.289 112.016H119.402C119.625 111.391 120.027 110.891 120.61 110.517C121.197 110.138 121.89 109.949 122.691 109.949C123.709 109.949 124.535 110.273 125.169 110.922C125.808 111.566 126.128 112.48 126.128 113.663V121H123.11V114.26C123.11 113.654 122.949 113.199 122.627 112.896C122.305 112.593 121.902 112.442 121.419 112.442C120.87 112.442 120.441 112.617 120.134 112.967C119.826 113.313 119.672 113.77 119.672 114.338V121H116.739V114.196C116.739 113.661 116.585 113.235 116.277 112.918C115.974 112.6 115.574 112.442 115.077 112.442C114.741 112.442 114.438 112.527 114.168 112.697C113.903 112.863 113.692 113.098 113.536 113.401C113.379 113.699 113.301 114.049 113.301 114.452V121H110.276ZM133.433 125.318C132.453 125.318 131.612 125.183 130.911 124.913C130.215 124.648 129.661 124.286 129.249 123.827C128.838 123.367 128.57 122.851 128.447 122.278L131.245 121.902C131.33 122.12 131.465 122.323 131.65 122.513C131.835 122.702 132.079 122.854 132.382 122.967C132.689 123.086 133.063 123.145 133.504 123.145C134.162 123.145 134.704 122.984 135.13 122.662C135.561 122.345 135.776 121.812 135.776 121.064V119.068H135.649C135.516 119.371 135.317 119.658 135.052 119.928C134.787 120.197 134.446 120.418 134.029 120.588C133.613 120.759 133.115 120.844 132.538 120.844C131.719 120.844 130.973 120.654 130.301 120.276C129.633 119.892 129.1 119.307 128.703 118.521C128.31 117.731 128.113 116.732 128.113 115.524C128.113 114.288 128.314 113.256 128.717 112.428C129.119 111.599 129.654 110.979 130.322 110.567C130.994 110.155 131.731 109.949 132.531 109.949C133.142 109.949 133.653 110.053 134.065 110.261C134.477 110.465 134.808 110.721 135.059 111.028C135.315 111.331 135.511 111.63 135.649 111.923H135.762V110.091H138.767V121.107C138.767 122.035 138.539 122.811 138.085 123.436C137.63 124.061 137 124.53 136.195 124.842C135.395 125.16 134.474 125.318 133.433 125.318ZM133.497 118.571C133.984 118.571 134.396 118.45 134.732 118.209C135.073 117.963 135.334 117.612 135.514 117.158C135.698 116.698 135.791 116.149 135.791 115.51C135.791 114.871 135.701 114.317 135.521 113.848C135.341 113.375 135.08 113.008 134.74 112.747C134.399 112.487 133.984 112.357 133.497 112.357C132.999 112.357 132.58 112.491 132.24 112.761C131.899 113.027 131.641 113.396 131.465 113.869C131.29 114.343 131.203 114.89 131.203 115.51C131.203 116.14 131.29 116.684 131.465 117.143C131.645 117.598 131.903 117.951 132.24 118.202C132.58 118.448 132.999 118.571 133.497 118.571ZM144.285 121.206C143.589 121.206 142.969 121.085 142.424 120.844C141.88 120.598 141.449 120.235 141.132 119.757C140.819 119.274 140.663 118.673 140.663 117.953C140.663 117.347 140.774 116.838 140.997 116.426C141.219 116.014 141.522 115.683 141.906 115.432C142.289 115.181 142.725 114.991 143.213 114.864C143.705 114.736 144.221 114.646 144.761 114.594C145.395 114.527 145.907 114.466 146.295 114.409C146.683 114.348 146.965 114.258 147.14 114.139C147.315 114.021 147.403 113.846 147.403 113.614V113.571C147.403 113.121 147.261 112.773 146.977 112.527C146.697 112.281 146.3 112.158 145.784 112.158C145.239 112.158 144.806 112.278 144.484 112.52C144.162 112.757 143.949 113.055 143.845 113.415L141.046 113.188C141.188 112.525 141.468 111.952 141.884 111.469C142.301 110.981 142.838 110.607 143.497 110.347C144.16 110.081 144.927 109.949 145.798 109.949C146.404 109.949 146.984 110.02 147.538 110.162C148.097 110.304 148.591 110.524 149.022 110.822C149.458 111.121 149.801 111.504 150.052 111.973C150.303 112.437 150.428 112.993 150.428 113.642V121H147.559V119.487H147.474C147.299 119.828 147.064 120.129 146.771 120.389C146.477 120.645 146.124 120.846 145.713 120.993C145.301 121.135 144.825 121.206 144.285 121.206ZM145.151 119.118C145.597 119.118 145.99 119.03 146.33 118.855C146.671 118.675 146.939 118.434 147.133 118.131C147.327 117.828 147.424 117.484 147.424 117.101V115.943C147.329 116.005 147.199 116.062 147.034 116.114C146.873 116.161 146.69 116.206 146.487 116.249C146.283 116.286 146.079 116.322 145.876 116.355C145.672 116.384 145.488 116.41 145.322 116.433C144.967 116.485 144.657 116.568 144.392 116.682C144.126 116.795 143.92 116.949 143.774 117.143C143.627 117.333 143.553 117.57 143.553 117.854C143.553 118.266 143.703 118.58 144.001 118.798C144.304 119.011 144.687 119.118 145.151 119.118ZM155.887 121.206C155.191 121.206 154.57 121.085 154.026 120.844C153.481 120.598 153.05 120.235 152.733 119.757C152.421 119.274 152.264 118.673 152.264 117.953C152.264 117.347 152.376 116.838 152.598 116.426C152.821 116.014 153.124 115.683 153.507 115.432C153.891 115.181 154.326 114.991 154.814 114.864C155.307 114.736 155.823 114.646 156.362 114.594C156.997 114.527 157.508 114.466 157.896 114.409C158.285 114.348 158.566 114.258 158.742 114.139C158.917 114.021 159.004 113.846 159.004 113.614V113.571C159.004 113.121 158.862 112.773 158.578 112.527C158.299 112.281 157.901 112.158 157.385 112.158C156.841 112.158 156.407 112.278 156.085 112.52C155.763 112.757 155.55 113.055 155.446 113.415L152.648 113.188C152.79 112.525 153.069 111.952 153.486 111.469C153.903 110.981 154.44 110.607 155.098 110.347C155.761 110.081 156.528 109.949 157.399 109.949C158.005 109.949 158.585 110.02 159.139 110.162C159.698 110.304 160.193 110.524 160.624 110.822C161.059 111.121 161.403 111.504 161.654 111.973C161.905 112.437 162.03 112.993 162.03 113.642V121H159.161V119.487H159.075C158.9 119.828 158.666 120.129 158.372 120.389C158.079 120.645 157.726 120.846 157.314 120.993C156.902 121.135 156.426 121.206 155.887 121.206ZM156.753 119.118C157.198 119.118 157.591 119.03 157.932 118.855C158.273 118.675 158.54 118.434 158.735 118.131C158.929 117.828 159.026 117.484 159.026 117.101V115.943C158.931 116.005 158.801 116.062 158.635 116.114C158.474 116.161 158.292 116.206 158.088 116.249C157.885 116.286 157.681 116.322 157.477 116.355C157.274 116.384 157.089 116.41 156.923 116.433C156.568 116.485 156.258 116.568 155.993 116.682C155.728 116.795 155.522 116.949 155.375 117.143C155.228 117.333 155.155 117.57 155.155 117.854C155.155 118.266 155.304 118.58 155.602 118.798C155.905 119.011 156.289 119.118 156.753 119.118ZM164.377 121V110.091H167.311V111.994H167.424C167.623 111.317 167.957 110.806 168.426 110.46C168.894 110.11 169.434 109.935 170.045 109.935C170.196 109.935 170.36 109.944 170.535 109.963C170.71 109.982 170.864 110.008 170.997 110.041V112.726C170.855 112.683 170.658 112.645 170.407 112.612C170.156 112.579 169.927 112.562 169.718 112.562C169.273 112.562 168.875 112.66 168.525 112.854C168.179 113.043 167.905 113.308 167.701 113.649C167.502 113.99 167.403 114.383 167.403 114.828V121H164.377ZM176.073 121.178C175.244 121.178 174.494 120.964 173.822 120.538C173.154 120.107 172.624 119.475 172.231 118.642C171.842 117.804 171.648 116.777 171.648 115.56C171.648 114.31 171.849 113.27 172.252 112.442C172.654 111.608 173.189 110.986 173.857 110.574C174.529 110.157 175.266 109.949 176.066 109.949C176.677 109.949 177.186 110.053 177.593 110.261C178.005 110.465 178.336 110.721 178.587 111.028C178.843 111.331 179.037 111.63 179.17 111.923H179.262V106.455H182.28V121H179.297V119.253H179.17C179.028 119.556 178.826 119.857 178.566 120.155C178.31 120.448 177.976 120.692 177.564 120.886C177.157 121.08 176.66 121.178 176.073 121.178ZM177.032 118.77C177.519 118.77 177.931 118.637 178.268 118.372C178.608 118.102 178.869 117.726 179.049 117.243C179.233 116.76 179.326 116.194 179.326 115.545C179.326 114.897 179.236 114.333 179.056 113.855C178.876 113.377 178.616 113.008 178.275 112.747C177.934 112.487 177.519 112.357 177.032 112.357C176.535 112.357 176.116 112.491 175.775 112.761C175.434 113.031 175.176 113.405 175.001 113.884C174.825 114.362 174.738 114.916 174.738 115.545C174.738 116.18 174.825 116.741 175.001 117.229C175.18 117.712 175.439 118.09 175.775 118.365C176.116 118.635 176.535 118.77 177.032 118.77Z" fill="#BEBEBE"/>
<path d="M25.7037 34.4545H29.4963L33.502 44.2273H33.6724L37.6781 34.4545H41.4707V49H38.4877V39.5327H38.367L34.6028 48.929H32.5716L28.8074 39.4972H28.6866V49H25.7037V34.4545ZM47.0584 49.206C46.3624 49.206 45.7421 49.0852 45.1976 48.8438C44.6531 48.5975 44.2222 48.2353 43.905 47.7571C43.5925 47.2741 43.4363 46.6728 43.4363 45.9531C43.4363 45.3471 43.5475 44.8381 43.7701 44.4261C43.9926 44.0142 44.2956 43.6828 44.6792 43.4318C45.0627 43.1809 45.4983 42.9915 45.986 42.8636C46.4784 42.7358 46.9945 42.6458 47.5343 42.5938C48.1687 42.5275 48.6801 42.4659 49.0684 42.4091C49.4566 42.3475 49.7383 42.2576 49.9135 42.1392C50.0887 42.0208 50.1763 41.8456 50.1763 41.6136V41.571C50.1763 41.1212 50.0343 40.7732 49.7502 40.527C49.4708 40.2808 49.0731 40.1577 48.557 40.1577C48.0125 40.1577 47.5792 40.2784 47.2573 40.5199C46.9353 40.7566 46.7222 41.0549 46.6181 41.4148L43.8198 41.1875C43.9618 40.5246 44.2412 39.9517 44.6578 39.4688C45.0745 38.9811 45.6119 38.607 46.2701 38.3466C46.9329 38.0814 47.7 37.9489 48.5712 37.9489C49.1773 37.9489 49.7573 38.0199 50.3113 38.1619C50.87 38.304 51.3648 38.5241 51.7956 38.8224C52.2312 39.1207 52.5745 39.5043 52.8255 39.973C53.0764 40.437 53.2019 40.9934 53.2019 41.642V49H50.3326V47.4872H50.2473C50.0721 47.8281 49.8378 48.1288 49.5442 48.3892C49.2507 48.6449 48.8979 48.8461 48.486 48.9929C48.074 49.1349 47.5982 49.206 47.0584 49.206ZM47.9249 47.1179C48.37 47.1179 48.763 47.0303 49.1039 46.8551C49.4448 46.6752 49.7123 46.4337 49.9064 46.1307C50.1006 45.8277 50.1976 45.4844 50.1976 45.1009V43.9432C50.1029 44.0047 49.9727 44.0616 49.807 44.1136C49.646 44.161 49.4637 44.206 49.2601 44.2486C49.0565 44.2865 48.8529 44.322 48.6493 44.3551C48.4457 44.3835 48.2611 44.4096 48.0953 44.4332C47.7402 44.4853 47.4301 44.5682 47.165 44.6818C46.8998 44.7955 46.6938 44.9493 46.5471 45.1435C46.4003 45.3329 46.3269 45.5696 46.3269 45.8537C46.3269 46.2656 46.476 46.5805 46.7743 46.7983C47.0774 47.0114 47.4609 47.1179 47.9249 47.1179ZM59.5691 49.1776C58.7405 49.1776 57.99 48.9645 57.3176 48.5384C56.65 48.1075 56.1197 47.4754 55.7267 46.642C55.3385 45.804 55.1444 44.7765 55.1444 43.5597C55.1444 42.3097 55.3456 41.2704 55.748 40.4418C56.1505 39.6084 56.6855 38.9858 57.3532 38.5739C58.0255 38.1572 58.7618 37.9489 59.562 37.9489C60.1728 37.9489 60.6818 38.053 61.089 38.2614C61.5009 38.465 61.8323 38.7206 62.0833 39.0284C62.339 39.3314 62.5331 39.6297 62.6657 39.9233H62.758V34.4545H65.7765V49H62.7935V47.2528H62.6657C62.5236 47.5559 62.3224 47.8565 62.062 48.1548C61.8063 48.4484 61.4725 48.6922 61.0605 48.8864C60.6534 49.0805 60.1562 49.1776 59.5691 49.1776ZM60.5279 46.7699C61.0156 46.7699 61.4275 46.6373 61.7637 46.3722C62.1046 46.1023 62.365 45.7259 62.5449 45.2429C62.7296 44.7599 62.8219 44.1941 62.8219 43.5455C62.8219 42.8968 62.7319 42.3333 62.552 41.8551C62.3721 41.3769 62.1117 41.0076 61.7708 40.7472C61.4299 40.4867 61.0156 40.3565 60.5279 40.3565C60.0307 40.3565 59.6117 40.4915 59.2708 40.7614C58.9299 41.0312 58.6718 41.4053 58.4966 41.8835C58.3214 42.3617 58.2338 42.9157 58.2338 43.5455C58.2338 44.1799 58.3214 44.741 58.4966 45.2287C58.6766 45.7116 58.9346 46.0904 59.2708 46.3651C59.6117 46.6349 60.0307 46.7699 60.5279 46.7699ZM77.3407 41.2017L74.5708 41.3722C74.5235 41.1354 74.4217 40.9223 74.2654 40.733C74.1092 40.5388 73.9032 40.3849 73.6475 40.2713C73.3966 40.1529 73.0959 40.0938 72.7456 40.0938C72.2768 40.0938 71.8815 40.1932 71.5595 40.392C71.2375 40.5862 71.0765 40.8466 71.0765 41.1733C71.0765 41.4337 71.1807 41.6539 71.389 41.8338C71.5974 42.0137 71.9548 42.1581 72.4615 42.267L74.4359 42.6648C75.4965 42.8826 76.2872 43.233 76.8081 43.7159C77.3289 44.1989 77.5893 44.8333 77.5893 45.6193C77.5893 46.3343 77.3786 46.9616 76.9572 47.5014C76.5405 48.0412 75.9676 48.4626 75.2385 48.7656C74.514 49.0639 73.6783 49.2131 72.7314 49.2131C71.2872 49.2131 70.1367 48.9124 69.2797 48.3111C68.4274 47.705 67.9279 46.8812 67.7811 45.8395L70.7569 45.6832C70.8469 46.1236 71.0647 46.4598 71.4103 46.6918C71.756 46.919 72.1987 47.0327 72.7385 47.0327C73.2688 47.0327 73.6949 46.9309 74.0169 46.7273C74.3436 46.5189 74.5093 46.2514 74.514 45.9247C74.5093 45.6501 74.3933 45.4252 74.166 45.25C73.9387 45.0701 73.5884 44.9328 73.1149 44.8381L71.2257 44.4616C70.1603 44.2486 69.3672 43.8793 68.8464 43.3537C68.3303 42.8281 68.0723 42.1581 68.0723 41.3438C68.0723 40.643 68.2617 40.0393 68.6404 39.5327C69.024 39.026 69.5614 38.6354 70.2527 38.3608C70.9487 38.0862 71.7631 37.9489 72.6958 37.9489C74.0737 37.9489 75.158 38.2401 75.9487 38.8224C76.7441 39.4048 77.2082 40.1979 77.3407 41.2017ZM89.3365 49H84.1802V34.4545H89.3791C90.8422 34.4545 92.1016 34.7457 93.1575 35.3281C94.2134 35.9058 95.0254 36.7367 95.5936 37.821C96.1665 38.9053 96.4529 40.2027 96.4529 41.7131C96.4529 43.2282 96.1665 44.5303 95.5936 45.6193C95.0254 46.7083 94.2086 47.544 93.1433 48.1264C92.0827 48.7088 90.8137 49 89.3365 49ZM87.2555 46.3651H89.2086C90.1177 46.3651 90.8824 46.2041 91.5027 45.8821C92.1277 45.5554 92.5964 45.0511 92.9089 44.3693C93.2261 43.6828 93.3848 42.7973 93.3848 41.7131C93.3848 40.6383 93.2261 39.7599 92.9089 39.0781C92.5964 38.3963 92.13 37.8944 91.5098 37.5724C90.8895 37.2505 90.1248 37.0895 89.2157 37.0895H87.2555V46.3651ZM101.785 49.206C101.089 49.206 100.469 49.0852 99.9242 48.8438C99.3797 48.5975 98.9488 48.2353 98.6316 47.7571C98.3191 47.2741 98.1628 46.6728 98.1628 45.9531C98.1628 45.3471 98.2741 44.8381 98.4966 44.4261C98.7192 44.0142 99.0222 43.6828 99.4057 43.4318C99.7892 43.1809 100.225 42.9915 100.713 42.8636C101.205 42.7358 101.721 42.6458 102.261 42.5938C102.895 42.5275 103.407 42.4659 103.795 42.4091C104.183 42.3475 104.465 42.2576 104.64 42.1392C104.815 42.0208 104.903 41.8456 104.903 41.6136V41.571C104.903 41.1212 104.761 40.7732 104.477 40.527C104.197 40.2808 103.8 40.1577 103.284 40.1577C102.739 40.1577 102.306 40.2784 101.984 40.5199C101.662 40.7566 101.449 41.0549 101.345 41.4148L98.5463 41.1875C98.6884 40.5246 98.9677 39.9517 99.3844 39.4688C99.8011 38.9811 100.338 38.607 100.997 38.3466C101.66 38.0814 102.427 37.9489 103.298 37.9489C103.904 37.9489 104.484 38.0199 105.038 38.1619C105.597 38.304 106.091 38.5241 106.522 38.8224C106.958 39.1207 107.301 39.5043 107.552 39.973C107.803 40.437 107.928 40.9934 107.928 41.642V49H105.059V47.4872H104.974C104.799 47.8281 104.564 48.1288 104.271 48.3892C103.977 48.6449 103.624 48.8461 103.213 48.9929C102.801 49.1349 102.325 49.206 101.785 49.206ZM102.651 47.1179C103.097 47.1179 103.49 47.0303 103.83 46.8551C104.171 46.6752 104.439 46.4337 104.633 46.1307C104.827 45.8277 104.924 45.4844 104.924 45.1009V43.9432C104.829 44.0047 104.699 44.0616 104.534 44.1136C104.373 44.161 104.19 44.206 103.987 44.2486C103.783 44.2865 103.579 44.322 103.376 44.3551C103.172 44.3835 102.988 44.4096 102.822 44.4332C102.467 44.4853 102.157 44.5682 101.892 44.6818C101.626 44.7955 101.42 44.9493 101.274 45.1435C101.127 45.3329 101.053 45.5696 101.053 45.8537C101.053 46.2656 101.203 46.5805 101.501 46.7983C101.804 47.0114 102.187 47.1179 102.651 47.1179ZM110.276 49V38.0909H113.159V40.0156H113.287C113.514 39.3764 113.893 38.8722 114.423 38.5028C114.954 38.1335 115.588 37.9489 116.327 37.9489C117.075 37.9489 117.712 38.1359 118.237 38.5099C118.763 38.8793 119.113 39.3812 119.289 40.0156H119.402C119.625 39.3906 120.027 38.8911 120.61 38.517C121.197 38.1383 121.89 37.9489 122.691 37.9489C123.709 37.9489 124.535 38.2732 125.169 38.9219C125.808 39.5658 126.128 40.4796 126.128 41.6634V49H123.11V42.2599C123.11 41.6539 122.949 41.1993 122.627 40.8963C122.305 40.5933 121.902 40.4418 121.419 40.4418C120.87 40.4418 120.441 40.617 120.134 40.9673C119.826 41.313 119.672 41.7699 119.672 42.3381V49H116.739V42.196C116.739 41.661 116.585 41.2348 116.277 40.9176C115.974 40.6004 115.574 40.4418 115.077 40.4418C114.741 40.4418 114.438 40.527 114.168 40.6974C113.903 40.8632 113.692 41.0975 113.536 41.4006C113.379 41.6989 113.301 42.0492 113.301 42.4517V49H110.276ZM133.433 53.3182C132.453 53.3182 131.612 53.1832 130.911 52.9134C130.215 52.6482 129.661 52.286 129.249 51.8267C128.838 51.3674 128.57 50.8513 128.447 50.2784L131.245 49.902C131.33 50.1198 131.465 50.3234 131.65 50.5128C131.835 50.7022 132.079 50.8537 132.382 50.9673C132.689 51.0857 133.063 51.1449 133.504 51.1449C134.162 51.1449 134.704 50.9839 135.13 50.6619C135.561 50.3447 135.776 49.812 135.776 49.0639V47.0682H135.649C135.516 47.3712 135.317 47.6577 135.052 47.9276C134.787 48.1974 134.446 48.4176 134.029 48.5881C133.613 48.7585 133.115 48.8438 132.538 48.8438C131.719 48.8438 130.973 48.6544 130.301 48.2756C129.633 47.892 129.1 47.3073 128.703 46.5213C128.31 45.7306 128.113 44.7315 128.113 43.5241C128.113 42.2884 128.314 41.2562 128.717 40.4276C129.119 39.599 129.654 38.9787 130.322 38.5668C130.994 38.1548 131.731 37.9489 132.531 37.9489C133.142 37.9489 133.653 38.053 134.065 38.2614C134.477 38.465 134.808 38.7206 135.059 39.0284C135.315 39.3314 135.511 39.6297 135.649 39.9233H135.762V38.0909H138.767V49.1065C138.767 50.0346 138.539 50.8111 138.085 51.4361C137.63 52.0611 137 52.5298 136.195 52.8423C135.395 53.1596 134.474 53.3182 133.433 53.3182ZM133.497 46.571C133.984 46.571 134.396 46.4503 134.732 46.2088C135.073 45.9626 135.334 45.6122 135.514 45.1577C135.698 44.6984 135.791 44.1491 135.791 43.5099C135.791 42.8707 135.701 42.3168 135.521 41.848C135.341 41.3745 135.08 41.0076 134.74 40.7472C134.399 40.4867 133.984 40.3565 133.497 40.3565C132.999 40.3565 132.58 40.4915 132.24 40.7614C131.899 41.0265 131.641 41.3958 131.465 41.8693C131.29 42.3428 131.203 42.8897 131.203 43.5099C131.203 44.1397 131.29 44.6842 131.465 45.1435C131.645 45.598 131.903 45.9508 132.24 46.2017C132.58 46.4479 132.999 46.571 133.497 46.571ZM144.285 49.206C143.589 49.206 142.969 49.0852 142.424 48.8438C141.88 48.5975 141.449 48.2353 141.132 47.7571C140.819 47.2741 140.663 46.6728 140.663 45.9531C140.663 45.3471 140.774 44.8381 140.997 44.4261C141.219 44.0142 141.522 43.6828 141.906 43.4318C142.289 43.1809 142.725 42.9915 143.213 42.8636C143.705 42.7358 144.221 42.6458 144.761 42.5938C145.395 42.5275 145.907 42.4659 146.295 42.4091C146.683 42.3475 146.965 42.2576 147.14 42.1392C147.315 42.0208 147.403 41.8456 147.403 41.6136V41.571C147.403 41.1212 147.261 40.7732 146.977 40.527C146.697 40.2808 146.3 40.1577 145.784 40.1577C145.239 40.1577 144.806 40.2784 144.484 40.5199C144.162 40.7566 143.949 41.0549 143.845 41.4148L141.046 41.1875C141.188 40.5246 141.468 39.9517 141.884 39.4688C142.301 38.9811 142.838 38.607 143.497 38.3466C144.16 38.0814 144.927 37.9489 145.798 37.9489C146.404 37.9489 146.984 38.0199 147.538 38.1619C148.097 38.304 148.591 38.5241 149.022 38.8224C149.458 39.1207 149.801 39.5043 150.052 39.973C150.303 40.437 150.428 40.9934 150.428 41.642V49H147.559V47.4872H147.474C147.299 47.8281 147.064 48.1288 146.771 48.3892C146.477 48.6449 146.124 48.8461 145.713 48.9929C145.301 49.1349 144.825 49.206 144.285 49.206ZM145.151 47.1179C145.597 47.1179 145.99 47.0303 146.33 46.8551C146.671 46.6752 146.939 46.4337 147.133 46.1307C147.327 45.8277 147.424 45.4844 147.424 45.1009V43.9432C147.329 44.0047 147.199 44.0616 147.034 44.1136C146.873 44.161 146.69 44.206 146.487 44.2486C146.283 44.2865 146.079 44.322 145.876 44.3551C145.672 44.3835 145.488 44.4096 145.322 44.4332C144.967 44.4853 144.657 44.5682 144.392 44.6818C144.126 44.7955 143.92 44.9493 143.774 45.1435C143.627 45.3329 143.553 45.5696 143.553 45.8537C143.553 46.2656 143.703 46.5805 144.001 46.7983C144.304 47.0114 144.687 47.1179 145.151 47.1179ZM155.887 49.206C155.191 49.206 154.57 49.0852 154.026 48.8438C153.481 48.5975 153.05 48.2353 152.733 47.7571C152.421 47.2741 152.264 46.6728 152.264 45.9531C152.264 45.3471 152.376 44.8381 152.598 44.4261C152.821 44.0142 153.124 43.6828 153.507 43.4318C153.891 43.1809 154.326 42.9915 154.814 42.8636C155.307 42.7358 155.823 42.6458 156.362 42.5938C156.997 42.5275 157.508 42.4659 157.896 42.4091C158.285 42.3475 158.566 42.2576 158.742 42.1392C158.917 42.0208 159.004 41.8456 159.004 41.6136V41.571C159.004 41.1212 158.862 40.7732 158.578 40.527C158.299 40.2808 157.901 40.1577 157.385 40.1577C156.841 40.1577 156.407 40.2784 156.085 40.5199C155.763 40.7566 155.55 41.0549 155.446 41.4148L152.648 41.1875C152.79 40.5246 153.069 39.9517 153.486 39.4688C153.903 38.9811 154.44 38.607 155.098 38.3466C155.761 38.0814 156.528 37.9489 157.399 37.9489C158.005 37.9489 158.585 38.0199 159.139 38.1619C159.698 38.304 160.193 38.5241 160.624 38.8224C161.059 39.1207 161.403 39.5043 161.654 39.973C161.905 40.437 162.03 40.9934 162.03 41.642V49H159.161V47.4872H159.075C158.9 47.8281 158.666 48.1288 158.372 48.3892C158.079 48.6449 157.726 48.8461 157.314 48.9929C156.902 49.1349 156.426 49.206 155.887 49.206ZM156.753 47.1179C157.198 47.1179 157.591 47.0303 157.932 46.8551C158.273 46.6752 158.54 46.4337 158.735 46.1307C158.929 45.8277 159.026 45.4844 159.026 45.1009V43.9432C158.931 44.0047 158.801 44.0616 158.635 44.1136C158.474 44.161 158.292 44.206 158.088 44.2486C157.885 44.2865 157.681 44.322 157.477 44.3551C157.274 44.3835 157.089 44.4096 156.923 44.4332C156.568 44.4853 156.258 44.5682 155.993 44.6818C155.728 44.7955 155.522 44.9493 155.375 45.1435C155.228 45.3329 155.155 45.5696 155.155 45.8537C155.155 46.2656 155.304 46.5805 155.602 46.7983C155.905 47.0114 156.289 47.1179 156.753 47.1179ZM164.377 49V38.0909H167.311V39.9943H167.424C167.623 39.3172 167.957 38.8059 168.426 38.4602C168.894 38.1098 169.434 37.9347 170.045 37.9347C170.196 37.9347 170.36 37.9441 170.535 37.9631C170.71 37.982 170.864 38.008 170.997 38.0412V40.7259C170.855 40.6832 170.658 40.6454 170.407 40.6122C170.156 40.5791 169.927 40.5625 169.718 40.5625C169.273 40.5625 168.875 40.6596 168.525 40.8537C168.179 41.0431 167.905 41.3082 167.701 41.6491C167.502 41.9901 167.403 42.383 167.403 42.8281V49H164.377ZM176.073 49.1776C175.244 49.1776 174.494 48.9645 173.822 48.5384C173.154 48.1075 172.624 47.4754 172.231 46.642C171.842 45.804 171.648 44.7765 171.648 43.5597C171.648 42.3097 171.849 41.2704 172.252 40.4418C172.654 39.6084 173.189 38.9858 173.857 38.5739C174.529 38.1572 175.266 37.9489 176.066 37.9489C176.677 37.9489 177.186 38.053 177.593 38.2614C178.005 38.465 178.336 38.7206 178.587 39.0284C178.843 39.3314 179.037 39.6297 179.17 39.9233H179.262V34.4545H182.28V49H179.297V47.2528H179.17C179.028 47.5559 178.826 47.8565 178.566 48.1548C178.31 48.4484 177.976 48.6922 177.564 48.8864C177.157 49.0805 176.66 49.1776 176.073 49.1776ZM177.032 46.7699C177.519 46.7699 177.931 46.6373 178.268 46.3722C178.608 46.1023 178.869 45.7259 179.049 45.2429C179.233 44.7599 179.326 44.1941 179.326 43.5455C179.326 42.8968 179.236 42.3333 179.056 41.8551C178.876 41.3769 178.616 41.0076 178.275 40.7472C177.934 40.4867 177.519 40.3565 177.032 40.3565C176.535 40.3565 176.116 40.4915 175.775 40.7614C175.434 41.0312 175.176 41.4053 175.001 41.8835C174.825 42.3617 174.738 42.9157 174.738 43.5455C174.738 44.1799 174.825 44.741 175.001 45.2287C175.18 45.7116 175.439 46.0904 175.775 46.3651C176.116 46.6349 176.535 46.7699 177.032 46.7699Z" fill="#686868"/>
<path d="M25.7037 12.4545H29.4963L33.502 22.2273H33.6724L37.6781 12.4545H41.4707V27H38.4877V17.5327H38.367L34.6028 26.929H32.5716L28.8074 17.4972H28.6866V27H25.7037V12.4545ZM47.0584 27.206C46.3624 27.206 45.7421 27.0852 45.1976 26.8438C44.6531 26.5975 44.2222 26.2353 43.905 25.7571C43.5925 25.2741 43.4363 24.6728 43.4363 23.9531C43.4363 23.3471 43.5475 22.8381 43.7701 22.4261C43.9926 22.0142 44.2956 21.6828 44.6792 21.4318C45.0627 21.1809 45.4983 20.9915 45.986 20.8636C46.4784 20.7358 46.9945 20.6458 47.5343 20.5938C48.1687 20.5275 48.6801 20.4659 49.0684 20.4091C49.4566 20.3475 49.7383 20.2576 49.9135 20.1392C50.0887 20.0208 50.1763 19.8456 50.1763 19.6136V19.571C50.1763 19.1212 50.0343 18.7732 49.7502 18.527C49.4708 18.2808 49.0731 18.1577 48.557 18.1577C48.0125 18.1577 47.5792 18.2784 47.2573 18.5199C46.9353 18.7566 46.7222 19.0549 46.6181 19.4148L43.8198 19.1875C43.9618 18.5246 44.2412 17.9517 44.6578 17.4688C45.0745 16.9811 45.6119 16.607 46.2701 16.3466C46.9329 16.0814 47.7 15.9489 48.5712 15.9489C49.1773 15.9489 49.7573 16.0199 50.3113 16.1619C50.87 16.304 51.3648 16.5241 51.7956 16.8224C52.2312 17.1207 52.5745 17.5043 52.8255 17.973C53.0764 18.437 53.2019 18.9934 53.2019 19.642V27H50.3326V25.4872H50.2473C50.0721 25.8281 49.8378 26.1288 49.5442 26.3892C49.2507 26.6449 48.8979 26.8461 48.486 26.9929C48.074 27.1349 47.5982 27.206 47.0584 27.206ZM47.9249 25.1179C48.37 25.1179 48.763 25.0303 49.1039 24.8551C49.4448 24.6752 49.7123 24.4337 49.9064 24.1307C50.1006 23.8277 50.1976 23.4844 50.1976 23.1009V21.9432C50.1029 22.0047 49.9727 22.0616 49.807 22.1136C49.646 22.161 49.4637 22.206 49.2601 22.2486C49.0565 22.2865 48.8529 22.322 48.6493 22.3551C48.4457 22.3835 48.2611 22.4096 48.0953 22.4332C47.7402 22.4853 47.4301 22.5682 47.165 22.6818C46.8998 22.7955 46.6938 22.9493 46.5471 23.1435C46.4003 23.3329 46.3269 23.5696 46.3269 23.8537C46.3269 24.2656 46.476 24.5805 46.7743 24.7983C47.0774 25.0114 47.4609 25.1179 47.9249 25.1179ZM59.5691 27.1776C58.7405 27.1776 57.99 26.9645 57.3176 26.5384C56.65 26.1075 56.1197 25.4754 55.7267 24.642C55.3385 23.804 55.1444 22.7765 55.1444 21.5597C55.1444 20.3097 55.3456 19.2704 55.748 18.4418C56.1505 17.6084 56.6855 16.9858 57.3532 16.5739C58.0255 16.1572 58.7618 15.9489 59.562 15.9489C60.1728 15.9489 60.6818 16.053 61.089 16.2614C61.5009 16.465 61.8323 16.7206 62.0833 17.0284C62.339 17.3314 62.5331 17.6297 62.6657 17.9233H62.758V12.4545H65.7765V27H62.7935V25.2528H62.6657C62.5236 25.5559 62.3224 25.8565 62.062 26.1548C61.8063 26.4484 61.4725 26.6922 61.0605 26.8864C60.6534 27.0805 60.1562 27.1776 59.5691 27.1776ZM60.5279 24.7699C61.0156 24.7699 61.4275 24.6373 61.7637 24.3722C62.1046 24.1023 62.365 23.7259 62.5449 23.2429C62.7296 22.7599 62.8219 22.1941 62.8219 21.5455C62.8219 20.8968 62.7319 20.3333 62.552 19.8551C62.3721 19.3769 62.1117 19.0076 61.7708 18.7472C61.4299 18.4867 61.0156 18.3565 60.5279 18.3565C60.0307 18.3565 59.6117 18.4915 59.2708 18.7614C58.9299 19.0312 58.6718 19.4053 58.4966 19.8835C58.3214 20.3617 58.2338 20.9157 58.2338 21.5455C58.2338 22.1799 58.3214 22.741 58.4966 23.2287C58.6766 23.7116 58.9346 24.0904 59.2708 24.3651C59.6117 24.6349 60.0307 24.7699 60.5279 24.7699ZM77.3407 19.2017L74.5708 19.3722C74.5235 19.1354 74.4217 18.9223 74.2654 18.733C74.1092 18.5388 73.9032 18.3849 73.6475 18.2713C73.3966 18.1529 73.0959 18.0938 72.7456 18.0938C72.2768 18.0938 71.8815 18.1932 71.5595 18.392C71.2375 18.5862 71.0765 18.8466 71.0765 19.1733C71.0765 19.4337 71.1807 19.6539 71.389 19.8338C71.5974 20.0137 71.9548 20.1581 72.4615 20.267L74.4359 20.6648C75.4965 20.8826 76.2872 21.233 76.8081 21.7159C77.3289 22.1989 77.5893 22.8333 77.5893 23.6193C77.5893 24.3343 77.3786 24.9616 76.9572 25.5014C76.5405 26.0412 75.9676 26.4626 75.2385 26.7656C74.514 27.0639 73.6783 27.2131 72.7314 27.2131C71.2872 27.2131 70.1367 26.9124 69.2797 26.3111C68.4274 25.705 67.9279 24.8812 67.7811 23.8395L70.7569 23.6832C70.8469 24.1236 71.0647 24.4598 71.4103 24.6918C71.756 24.919 72.1987 25.0327 72.7385 25.0327C73.2688 25.0327 73.6949 24.9309 74.0169 24.7273C74.3436 24.5189 74.5093 24.2514 74.514 23.9247C74.5093 23.6501 74.3933 23.4252 74.166 23.25C73.9387 23.0701 73.5884 22.9328 73.1149 22.8381L71.2257 22.4616C70.1603 22.2486 69.3672 21.8793 68.8464 21.3537C68.3303 20.8281 68.0723 20.1581 68.0723 19.3438C68.0723 18.643 68.2617 18.0393 68.6404 17.5327C69.024 17.026 69.5614 16.6354 70.2527 16.3608C70.9487 16.0862 71.7631 15.9489 72.6958 15.9489C74.0737 15.9489 75.158 16.2401 75.9487 16.8224C76.7441 17.4048 77.2082 18.1979 77.3407 19.2017ZM89.3365 27H84.1802V12.4545H89.3791C90.8422 12.4545 92.1016 12.7457 93.1575 13.3281C94.2134 13.9058 95.0254 14.7367 95.5936 15.821C96.1665 16.9053 96.4529 18.2027 96.4529 19.7131C96.4529 21.2282 96.1665 22.5303 95.5936 23.6193C95.0254 24.7083 94.2086 25.544 93.1433 26.1264C92.0827 26.7088 90.8137 27 89.3365 27ZM87.2555 24.3651H89.2086C90.1177 24.3651 90.8824 24.2041 91.5027 23.8821C92.1277 23.5554 92.5964 23.0511 92.9089 22.3693C93.2261 21.6828 93.3848 20.7973 93.3848 19.7131C93.3848 18.6383 93.2261 17.7599 92.9089 17.0781C92.5964 16.3963 92.13 15.8944 91.5098 15.5724C90.8895 15.2505 90.1248 15.0895 89.2157 15.0895H87.2555V24.3651ZM101.785 27.206C101.089 27.206 100.469 27.0852 99.9242 26.8438C99.3797 26.5975 98.9488 26.2353 98.6316 25.7571C98.3191 25.2741 98.1628 24.6728 98.1628 23.9531C98.1628 23.3471 98.2741 22.8381 98.4966 22.4261C98.7192 22.0142 99.0222 21.6828 99.4057 21.4318C99.7892 21.1809 100.225 20.9915 100.713 20.8636C101.205 20.7358 101.721 20.6458 102.261 20.5938C102.895 20.5275 103.407 20.4659 103.795 20.4091C104.183 20.3475 104.465 20.2576 104.64 20.1392C104.815 20.0208 104.903 19.8456 104.903 19.6136V19.571C104.903 19.1212 104.761 18.7732 104.477 18.527C104.197 18.2808 103.8 18.1577 103.284 18.1577C102.739 18.1577 102.306 18.2784 101.984 18.5199C101.662 18.7566 101.449 19.0549 101.345 19.4148L98.5463 19.1875C98.6884 18.5246 98.9677 17.9517 99.3844 17.4688C99.8011 16.9811 100.338 16.607 100.997 16.3466C101.66 16.0814 102.427 15.9489 103.298 15.9489C103.904 15.9489 104.484 16.0199 105.038 16.1619C105.597 16.304 106.091 16.5241 106.522 16.8224C106.958 17.1207 107.301 17.5043 107.552 17.973C107.803 18.437 107.928 18.9934 107.928 19.642V27H105.059V25.4872H104.974C104.799 25.8281 104.564 26.1288 104.271 26.3892C103.977 26.6449 103.624 26.8461 103.213 26.9929C102.801 27.1349 102.325 27.206 101.785 27.206ZM102.651 25.1179C103.097 25.1179 103.49 25.0303 103.83 24.8551C104.171 24.6752 104.439 24.4337 104.633 24.1307C104.827 23.8277 104.924 23.4844 104.924 23.1009V21.9432C104.829 22.0047 104.699 22.0616 104.534 22.1136C104.373 22.161 104.19 22.206 103.987 22.2486C103.783 22.2865 103.579 22.322 103.376 22.3551C103.172 22.3835 102.988 22.4096 102.822 22.4332C102.467 22.4853 102.157 22.5682 101.892 22.6818C101.626 22.7955 101.42 22.9493 101.274 23.1435C101.127 23.3329 101.053 23.5696 101.053 23.8537C101.053 24.2656 101.203 24.5805 101.501 24.7983C101.804 25.0114 102.187 25.1179 102.651 25.1179ZM110.276 27V16.0909H113.159V18.0156H113.287C113.514 17.3764 113.893 16.8722 114.423 16.5028C114.954 16.1335 115.588 15.9489 116.327 15.9489C117.075 15.9489 117.712 16.1359 118.237 16.5099C118.763 16.8793 119.113 17.3812 119.289 18.0156H119.402C119.625 17.3906 120.027 16.8911 120.61 16.517C121.197 16.1383 121.89 15.9489 122.691 15.9489C123.709 15.9489 124.535 16.2732 125.169 16.9219C125.808 17.5658 126.128 18.4796 126.128 19.6634V27H123.11V20.2599C123.11 19.6539 122.949 19.1993 122.627 18.8963C122.305 18.5933 121.902 18.4418 121.419 18.4418C120.87 18.4418 120.441 18.617 120.134 18.9673C119.826 19.313 119.672 19.7699 119.672 20.3381V27H116.739V20.196C116.739 19.661 116.585 19.2348 116.277 18.9176C115.974 18.6004 115.574 18.4418 115.077 18.4418C114.741 18.4418 114.438 18.527 114.168 18.6974C113.903 18.8632 113.692 19.0975 113.536 19.4006C113.379 19.6989 113.301 20.0492 113.301 20.4517V27H110.276ZM133.433 31.3182C132.453 31.3182 131.612 31.1832 130.911 30.9134C130.215 30.6482 129.661 30.286 129.249 29.8267C128.838 29.3674 128.57 28.8513 128.447 28.2784L131.245 27.902C131.33 28.1198 131.465 28.3234 131.65 28.5128C131.835 28.7022 132.079 28.8537 132.382 28.9673C132.689 29.0857 133.063 29.1449 133.504 29.1449C134.162 29.1449 134.704 28.9839 135.13 28.6619C135.561 28.3447 135.776 27.812 135.776 27.0639V25.0682H135.649C135.516 25.3712 135.317 25.6577 135.052 25.9276C134.787 26.1974 134.446 26.4176 134.029 26.5881C133.613 26.7585 133.115 26.8438 132.538 26.8438C131.719 26.8438 130.973 26.6544 130.301 26.2756C129.633 25.892 129.1 25.3073 128.703 24.5213C128.31 23.7306 128.113 22.7315 128.113 21.5241C128.113 20.2884 128.314 19.2562 128.717 18.4276C129.119 17.599 129.654 16.9787 130.322 16.5668C130.994 16.1548 131.731 15.9489 132.531 15.9489C133.142 15.9489 133.653 16.053 134.065 16.2614C134.477 16.465 134.808 16.7206 135.059 17.0284C135.315 17.3314 135.511 17.6297 135.649 17.9233H135.762V16.0909H138.767V27.1065C138.767 28.0346 138.539 28.8111 138.085 29.4361C137.63 30.0611 137 30.5298 136.195 30.8423C135.395 31.1596 134.474 31.3182 133.433 31.3182ZM133.497 24.571C133.984 24.571 134.396 24.4503 134.732 24.2088C135.073 23.9626 135.334 23.6122 135.514 23.1577C135.698 22.6984 135.791 22.1491 135.791 21.5099C135.791 20.8707 135.701 20.3168 135.521 19.848C135.341 19.3745 135.08 19.0076 134.74 18.7472C134.399 18.4867 133.984 18.3565 133.497 18.3565C132.999 18.3565 132.58 18.4915 132.24 18.7614C131.899 19.0265 131.641 19.3958 131.465 19.8693C131.29 20.3428 131.203 20.8897 131.203 21.5099C131.203 22.1397 131.29 22.6842 131.465 23.1435C131.645 23.598 131.903 23.9508 132.24 24.2017C132.58 24.4479 132.999 24.571 133.497 24.571ZM144.285 27.206C143.589 27.206 142.969 27.0852 142.424 26.8438C141.88 26.5975 141.449 26.2353 141.132 25.7571C140.819 25.2741 140.663 24.6728 140.663 23.9531C140.663 23.3471 140.774 22.8381 140.997 22.4261C141.219 22.0142 141.522 21.6828 141.906 21.4318C142.289 21.1809 142.725 20.9915 143.213 20.8636C143.705 20.7358 144.221 20.6458 144.761 20.5938C145.395 20.5275 145.907 20.4659 146.295 20.4091C146.683 20.3475 146.965 20.2576 147.14 20.1392C147.315 20.0208 147.403 19.8456 147.403 19.6136V19.571C147.403 19.1212 147.261 18.7732 146.977 18.527C146.697 18.2808 146.3 18.1577 145.784 18.1577C145.239 18.1577 144.806 18.2784 144.484 18.5199C144.162 18.7566 143.949 19.0549 143.845 19.4148L141.046 19.1875C141.188 18.5246 141.468 17.9517 141.884 17.4688C142.301 16.9811 142.838 16.607 143.497 16.3466C144.16 16.0814 144.927 15.9489 145.798 15.9489C146.404 15.9489 146.984 16.0199 147.538 16.1619C148.097 16.304 148.591 16.5241 149.022 16.8224C149.458 17.1207 149.801 17.5043 150.052 17.973C150.303 18.437 150.428 18.9934 150.428 19.642V27H147.559V25.4872H147.474C147.299 25.8281 147.064 26.1288 146.771 26.3892C146.477 26.6449 146.124 26.8461 145.713 26.9929C145.301 27.1349 144.825 27.206 144.285 27.206ZM145.151 25.1179C145.597 25.1179 145.99 25.0303 146.33 24.8551C146.671 24.6752 146.939 24.4337 147.133 24.1307C147.327 23.8277 147.424 23.4844 147.424 23.1009V21.9432C147.329 22.0047 147.199 22.0616 147.034 22.1136C146.873 22.161 146.69 22.206 146.487 22.2486C146.283 22.2865 146.079 22.322 145.876 22.3551C145.672 22.3835 145.488 22.4096 145.322 22.4332C144.967 22.4853 144.657 22.5682 144.392 22.6818C144.126 22.7955 143.92 22.9493 143.774 23.1435C143.627 23.3329 143.553 23.5696 143.553 23.8537C143.553 24.2656 143.703 24.5805 144.001 24.7983C144.304 25.0114 144.687 25.1179 145.151 25.1179ZM155.887 27.206C155.191 27.206 154.57 27.0852 154.026 26.8438C153.481 26.5975 153.05 26.2353 152.733 25.7571C152.421 25.2741 152.264 24.6728 152.264 23.9531C152.264 23.3471 152.376 22.8381 152.598 22.4261C152.821 22.0142 153.124 21.6828 153.507 21.4318C153.891 21.1809 154.326 20.9915 154.814 20.8636C155.307 20.7358 155.823 20.6458 156.362 20.5938C156.997 20.5275 157.508 20.4659 157.896 20.4091C158.285 20.3475 158.566 20.2576 158.742 20.1392C158.917 20.0208 159.004 19.8456 159.004 19.6136V19.571C159.004 19.1212 158.862 18.7732 158.578 18.527C158.299 18.2808 157.901 18.1577 157.385 18.1577C156.841 18.1577 156.407 18.2784 156.085 18.5199C155.763 18.7566 155.55 19.0549 155.446 19.4148L152.648 19.1875C152.79 18.5246 153.069 17.9517 153.486 17.4688C153.903 16.9811 154.44 16.607 155.098 16.3466C155.761 16.0814 156.528 15.9489 157.399 15.9489C158.005 15.9489 158.585 16.0199 159.139 16.1619C159.698 16.304 160.193 16.5241 160.624 16.8224C161.059 17.1207 161.403 17.5043 161.654 17.973C161.905 18.437 162.03 18.9934 162.03 19.642V27H159.161V25.4872H159.075C158.9 25.8281 158.666 26.1288 158.372 26.3892C158.079 26.6449 157.726 26.8461 157.314 26.9929C156.902 27.1349 156.426 27.206 155.887 27.206ZM156.753 25.1179C157.198 25.1179 157.591 25.0303 157.932 24.8551C158.273 24.6752 158.54 24.4337 158.735 24.1307C158.929 23.8277 159.026 23.4844 159.026 23.1009V21.9432C158.931 22.0047 158.801 22.0616 158.635 22.1136C158.474 22.161 158.292 22.206 158.088 22.2486C157.885 22.2865 157.681 22.322 157.477 22.3551C157.274 22.3835 157.089 22.4096 156.923 22.4332C156.568 22.4853 156.258 22.5682 155.993 22.6818C155.728 22.7955 155.522 22.9493 155.375 23.1435C155.228 23.3329 155.155 23.5696 155.155 23.8537C155.155 24.2656 155.304 24.5805 155.602 24.7983C155.905 25.0114 156.289 25.1179 156.753 25.1179ZM164.377 27V16.0909H167.311V17.9943H167.424C167.623 17.3172 167.957 16.8059 168.426 16.4602C168.894 16.1098 169.434 15.9347 170.045 15.9347C170.196 15.9347 170.36 15.9441 170.535 15.9631C170.71 15.982 170.864 16.008 170.997 16.0412V18.7259C170.855 18.6832 170.658 18.6454 170.407 18.6122C170.156 18.5791 169.927 18.5625 169.718 18.5625C169.273 18.5625 168.875 18.6596 168.525 18.8537C168.179 19.0431 167.905 19.3082 167.701 19.6491C167.502 19.9901 167.403 20.383 167.403 20.8281V27H164.377ZM176.073 27.1776C175.244 27.1776 174.494 26.9645 173.822 26.5384C173.154 26.1075 172.624 25.4754 172.231 24.642C171.842 23.804 171.648 22.7765 171.648 21.5597C171.648 20.3097 171.849 19.2704 172.252 18.4418C172.654 17.6084 173.189 16.9858 173.857 16.5739C174.529 16.1572 175.266 15.9489 176.066 15.9489C176.677 15.9489 177.186 16.053 177.593 16.2614C178.005 16.465 178.336 16.7206 178.587 17.0284C178.843 17.3314 179.037 17.6297 179.17 17.9233H179.262V12.4545H182.28V27H179.297V25.2528H179.17C179.028 25.5559 178.826 25.8565 178.566 26.1548C178.31 26.4484 177.976 26.6922 177.564 26.8864C177.157 27.0805 176.66 27.1776 176.073 27.1776ZM177.032 24.7699C177.519 24.7699 177.931 24.6373 178.268 24.3722C178.608 24.1023 178.869 23.7259 179.049 23.2429C179.233 22.7599 179.326 22.1941 179.326 21.5455C179.326 20.8968 179.236 20.3333 179.056 19.8551C178.876 19.3769 178.616 19.0076 178.275 18.7472C177.934 18.4867 177.519 18.3565 177.032 18.3565C176.535 18.3565 176.116 18.4915 175.775 18.7614C175.434 19.0312 175.176 19.4053 175.001 19.8835C174.825 20.3617 174.738 20.9157 174.738 21.5455C174.738 22.1799 174.825 22.741 175.001 23.2287C175.18 23.7116 175.439 24.0904 175.775 24.3651C176.116 24.6349 176.535 24.7699 177.032 24.7699Z" fill="#BEBEBE"/>
</svg>
