<svg width="998" height="300" viewBox="0 0 998 300" fill="none" xmlns="http://www.w3.org/2000/svg">
<path d="M60.431 4.81V68H45.835V42.101H20.648V68H6.052V4.81H20.648V29.285H45.835V4.81H60.431ZM72.5413 68V4.81H87.1373V68H72.5413ZM99.2239 68V4.81H127.704C130.671 4.81 133.4 5.433 135.892 6.679C138.443 7.86566 140.639 9.49733 142.478 11.574C144.317 13.5913 145.741 15.8757 146.75 18.427C147.818 20.9783 148.352 23.5593 148.352 26.17C148.352 28.7807 147.937 31.2727 147.106 33.646C146.275 35.96 145.089 38.0663 143.546 39.965C142.003 41.8043 140.164 43.3173 138.028 44.504L151.912 68H135.803L123.699 47.619H113.82V68H99.2239ZM113.82 34.892H127.17C128.357 34.892 129.395 34.536 130.285 33.824C131.234 33.0527 132.006 32.0143 132.599 30.709C133.192 29.4037 133.489 27.8907 133.489 26.17C133.489 24.4493 133.133 22.966 132.421 21.72C131.768 20.4147 130.938 19.406 129.929 18.694C128.92 17.982 127.852 17.626 126.725 17.626H113.82V34.892ZM203.258 55.184V68H158.847V4.81H202.457V17.626H173.443V29.908H198.363V41.745H173.443V55.184H203.258ZM259.687 68.445C255.533 68.445 251.617 67.6737 247.939 66.131C244.26 64.529 241.026 62.304 238.238 59.456C235.449 56.5487 233.254 53.137 231.652 49.221C230.109 45.2457 229.338 40.8253 229.338 35.96C229.338 31.5693 230.139 27.4753 231.741 23.678C233.343 19.8807 235.568 16.5283 238.416 13.621C241.264 10.7137 244.586 8.459 248.384 6.857C252.24 5.19566 256.394 4.365 260.844 4.365C266.658 4.365 271.791 5.611 276.241 8.103C280.691 10.595 283.984 13.9473 286.12 18.16L275.262 26.348C273.838 23.5593 271.761 21.364 269.032 19.762C266.362 18.16 263.454 17.359 260.31 17.359C257.936 17.359 255.741 17.8633 253.724 18.872C251.766 19.8213 250.045 21.186 248.562 22.966C247.138 24.6867 246.04 26.704 245.269 29.018C244.497 31.332 244.112 33.824 244.112 36.494C244.112 39.2233 244.527 41.745 245.358 44.059C246.188 46.373 247.345 48.3903 248.829 50.111C250.312 51.7723 252.062 53.0777 254.08 54.027C256.156 54.9763 258.441 55.451 260.933 55.451C263.959 55.451 266.836 54.7093 269.566 53.226C272.354 51.6833 274.906 49.4287 277.22 46.462V60.88C272.176 65.9233 266.332 68.445 259.687 68.445ZM276.33 45.572H264.048V34.981H288.434V68H276.33V45.572ZM298.083 68V4.81H326.563C329.53 4.81 332.259 5.433 334.751 6.679C337.303 7.86566 339.498 9.49733 341.337 11.574C343.177 13.5913 344.601 15.8757 345.609 18.427C346.677 20.9783 347.211 23.5593 347.211 26.17C347.211 28.7807 346.796 31.2727 345.965 33.646C345.135 35.96 343.948 38.0663 342.405 39.965C340.863 41.8043 339.023 43.3173 336.887 44.504L350.771 68H334.662L322.558 47.619H312.679V68H298.083ZM312.679 34.892H326.029C327.216 34.892 328.254 34.536 329.144 33.824C330.094 33.0527 330.865 32.0143 331.458 30.709C332.052 29.4037 332.348 27.8907 332.348 26.17C332.348 24.4493 331.992 22.966 331.28 21.72C330.628 20.4147 329.797 19.406 328.788 18.694C327.78 17.982 326.712 17.626 325.584 17.626H312.679V34.892ZM402.117 55.184V68H357.706V4.81H401.316V17.626H372.302V29.908H397.222V41.745H372.302V55.184H402.117ZM426.916 4.81H442.669L464.385 68H449.433L444.538 53.849H424.869L420.063 68H405.111L426.916 4.81ZM442.135 43.792L434.748 19.495L427.183 43.792H442.135ZM512.933 17.626H493.709V68H479.113V17.626H459.8V4.81H512.933V17.626ZM6.052 172V108.81H33.019C36.045 108.81 38.804 109.433 41.296 110.679C43.8473 111.866 46.0427 113.497 47.882 115.574C49.7213 117.591 51.1453 119.876 52.154 122.427C53.1627 124.978 53.667 127.589 53.667 130.259C53.667 133.878 52.8067 137.32 51.086 140.583C49.4247 143.846 47.081 146.516 44.055 148.593C41.0883 150.61 37.558 151.619 33.464 151.619H20.648V172H6.052ZM20.648 138.892H32.574C33.7013 138.892 34.7397 138.566 35.689 137.913C36.6383 137.26 37.4097 136.281 38.003 134.976C38.5963 133.671 38.893 132.069 38.893 130.17C38.893 128.212 38.537 126.61 37.825 125.364C37.1723 124.059 36.312 123.109 35.244 122.516C34.2353 121.923 33.1673 121.626 32.04 121.626H20.648V138.892ZM105.914 159.184V172H61.5032V108.81H105.113V121.626H76.0992V133.908H101.019V145.745H76.0992V159.184H105.914ZM141.418 172.534C136.671 172.534 132.369 171.644 128.513 169.864C124.715 168.025 121.422 165.592 118.634 162.566C115.904 159.481 113.798 156.039 112.315 152.242C110.831 148.385 110.09 144.41 110.09 140.316C110.09 136.103 110.861 132.098 112.404 128.301C114.006 124.504 116.201 121.122 118.99 118.155C121.838 115.129 125.19 112.756 129.047 111.035C132.903 109.314 137.116 108.454 141.685 108.454C146.372 108.454 150.614 109.374 154.412 111.213C158.268 112.993 161.561 115.426 164.291 118.511C167.079 121.596 169.215 125.067 170.699 128.924C172.182 132.721 172.924 136.608 172.924 140.583C172.924 144.796 172.152 148.801 170.61 152.598C169.067 156.395 166.872 159.807 164.024 162.833C161.176 165.8 157.823 168.173 153.967 169.953C150.169 171.674 145.986 172.534 141.418 172.534ZM124.953 140.494C124.953 142.927 125.309 145.3 126.021 147.614C126.733 149.869 127.771 151.886 129.136 153.666C130.56 155.446 132.31 156.87 134.387 157.938C136.463 159.006 138.837 159.54 141.507 159.54C144.295 159.54 146.728 159.006 148.805 157.938C150.881 156.811 152.602 155.327 153.967 153.488C155.331 151.649 156.34 149.602 156.993 147.347C157.705 145.033 158.061 142.689 158.061 140.316C158.061 137.883 157.705 135.54 156.993 133.285C156.281 131.03 155.213 129.013 153.789 127.233C152.365 125.394 150.614 123.97 148.538 122.961C146.461 121.952 144.117 121.448 141.507 121.448C138.718 121.448 136.285 121.982 134.209 123.05C132.191 124.118 130.471 125.572 129.047 127.411C127.682 129.191 126.644 131.238 125.932 133.552C125.279 135.807 124.953 138.121 124.953 140.494ZM181.358 172V108.81H208.325C211.351 108.81 214.11 109.433 216.602 110.679C219.153 111.866 221.348 113.497 223.188 115.574C225.027 117.591 226.451 119.876 227.46 122.427C228.468 124.978 228.973 127.589 228.973 130.259C228.973 133.878 228.112 137.32 226.392 140.583C224.73 143.846 222.387 146.516 219.361 148.593C216.394 150.61 212.864 151.619 208.77 151.619H195.954V172H181.358ZM195.954 138.892H207.88C209.007 138.892 210.045 138.566 210.995 137.913C211.944 137.26 212.715 136.281 213.309 134.976C213.902 133.671 214.199 132.069 214.199 130.17C214.199 128.212 213.843 126.61 213.131 125.364C212.478 124.059 211.618 123.109 210.55 122.516C209.541 121.923 208.473 121.626 207.346 121.626H195.954V138.892ZM236.809 172V108.81H251.405V159.184H282.021V172H236.809ZM333.281 159.184V172H288.87V108.81H332.48V121.626H303.466V133.908H328.386V145.745H303.466V159.184H333.281Z" fill="black"/>
<path d="M680.442 178.81V242H665.846V216.101H640.659V242H626.063V178.81H640.659V203.285H665.846V178.81H680.442ZM692.552 242V178.81H707.148V242H692.552ZM719.235 242V178.81H747.715C750.681 178.81 753.411 179.433 755.903 180.679C758.454 181.866 760.649 183.497 762.489 185.574C764.328 187.591 765.752 189.876 766.761 192.427C767.829 194.978 768.363 197.559 768.363 200.17C768.363 202.781 767.947 205.273 767.117 207.646C766.286 209.96 765.099 212.066 763.557 213.965C762.014 215.804 760.175 217.317 758.039 218.504L771.923 242H755.814L743.71 221.619H733.831V242H719.235ZM733.831 208.892H747.181C748.367 208.892 749.406 208.536 750.296 207.824C751.245 207.053 752.016 206.014 752.61 204.709C753.203 203.404 753.5 201.891 753.5 200.17C753.5 198.449 753.144 196.966 752.432 195.72C751.779 194.415 750.948 193.406 749.94 192.694C748.931 191.982 747.863 191.626 746.736 191.626H733.831V208.892ZM823.269 229.184V242H778.858V178.81H822.468V191.626H793.454V203.908H818.374V215.745H793.454V229.184H823.269ZM902.748 242V204.353L889.131 231.765H881.121L867.504 204.353V242H852.908V178.81H868.75L885.126 211.829L901.591 178.81H917.344V242H902.748ZM973.891 229.184V242H929.48V178.81H973.09V191.626H944.076V203.908H968.996V215.745H944.076V229.184H973.891ZM981.512 242V227.493H993.171V242H981.512Z" fill="black"/>
</svg>
