<svg width="250" height="75" viewBox="0 0 250 75" fill="none" xmlns="http://www.w3.org/2000/svg">
<path d="M15.1078 1.2025V17H11.4588V10.5252H5.162V17H1.513V1.2025H5.162V7.32125H11.4588V1.2025H15.1078ZM18.1353 17V1.2025H21.7843V17H18.1353ZM24.806 17V1.2025H31.926C32.6676 1.2025 33.35 1.35825 33.973 1.66975C34.6108 1.96642 35.1596 2.37433 35.6195 2.8935C36.0793 3.39783 36.4353 3.96892 36.6875 4.60675C36.9545 5.24458 37.088 5.88983 37.088 6.5425C37.088 7.19517 36.9841 7.81817 36.7765 8.4115C36.5688 8.99 36.2721 9.51658 35.8865 9.99125C35.5008 10.4511 35.041 10.8293 34.507 11.126L37.978 17H33.9507L30.9247 11.9047H28.455V17H24.806ZM28.455 8.723H31.7925C32.0891 8.723 32.3487 8.634 32.5712 8.456C32.8086 8.26317 33.0014 8.00358 33.1497 7.67725C33.2981 7.35092 33.3722 6.97267 33.3722 6.5425C33.3722 6.11233 33.2832 5.7415 33.1052 5.43C32.9421 5.10367 32.7344 4.8515 32.4822 4.6735C32.2301 4.4955 31.9631 4.4065 31.6812 4.4065H28.455V8.723ZM50.8145 13.796V17H39.7117V1.2025H50.6142V4.4065H43.3607V7.477H49.5907V10.4362H43.3607V13.796H50.8145ZM64.9217 17.1113C63.8833 17.1113 62.9043 16.9184 61.9847 16.5327C61.065 16.1322 60.2566 15.576 59.5594 14.864C58.8623 14.1372 58.3134 13.2842 57.9129 12.3052C57.5273 11.3114 57.3344 10.2063 57.3344 8.99C57.3344 7.89233 57.5347 6.86883 57.9352 5.9195C58.3357 4.97017 58.8919 4.13208 59.6039 3.40525C60.3159 2.67842 61.1466 2.11475 62.0959 1.71425C63.0601 1.29892 64.0984 1.09125 65.2109 1.09125C66.6646 1.09125 67.9477 1.40275 69.0602 2.02575C70.1727 2.64875 70.9959 3.48683 71.5299 4.54L68.8154 6.587C68.4594 5.88983 67.9403 5.341 67.2579 4.9405C66.5904 4.54 65.8636 4.33975 65.0774 4.33975C64.4841 4.33975 63.9353 4.46583 63.4309 4.718C62.9414 4.95533 62.5113 5.2965 62.1404 5.7415C61.7844 6.17167 61.51 6.676 61.3172 7.2545C61.1243 7.833 61.0279 8.456 61.0279 9.1235C61.0279 9.80583 61.1318 10.4362 61.3394 11.0147C61.5471 11.5932 61.8363 12.0976 62.2072 12.5277C62.578 12.9431 63.0156 13.2694 63.5199 13.5067C64.0391 13.7441 64.6102 13.8627 65.2332 13.8627C65.9897 13.8627 66.7091 13.6773 67.3914 13.3065C68.0886 12.9208 68.7264 12.3572 69.3049 11.6155V15.22C68.0441 16.4808 66.583 17.1113 64.9217 17.1113ZM69.0824 11.393H66.0119V8.74525H72.1084V17H69.0824V11.393ZM74.5208 17V1.2025H81.6408C82.3825 1.2025 83.0648 1.35825 83.6878 1.66975C84.3256 1.96642 84.8745 2.37433 85.3343 2.8935C85.7941 3.39783 86.1501 3.96892 86.4023 4.60675C86.6693 5.24458 86.8028 5.88983 86.8028 6.5425C86.8028 7.19517 86.699 7.81817 86.4913 8.4115C86.2836 8.99 85.987 9.51658 85.6013 9.99125C85.2156 10.4511 84.7558 10.8293 84.2218 11.126L87.6928 17H83.6656L80.6396 11.9047H78.1698V17H74.5208ZM78.1698 8.723H81.5073C81.804 8.723 82.0636 8.634 82.2861 8.456C82.5234 8.26317 82.7162 8.00358 82.8646 7.67725C83.0129 7.35092 83.0871 6.97267 83.0871 6.5425C83.0871 6.11233 82.9981 5.7415 82.8201 5.43C82.6569 5.10367 82.4492 4.8515 82.1971 4.6735C81.9449 4.4955 81.6779 4.4065 81.3961 4.4065H78.1698V8.723ZM100.529 13.796V17H89.4266V1.2025H100.329V4.4065H93.0756V7.477H99.3056V10.4362H93.0756V13.796H100.529ZM106.729 1.2025H110.667L116.096 17H112.358L111.134 13.4622H106.217L105.016 17H101.278L106.729 1.2025ZM110.534 10.948L108.687 4.87375L106.796 10.948H110.534ZM128.233 4.4065H123.427V17H119.778V4.4065H114.95V1.2025H128.233V4.4065ZM1.513 43V27.2025H8.25475C9.01125 27.2025 9.701 27.3582 10.324 27.6697C10.9618 27.9664 11.5107 28.3743 11.9705 28.8935C12.4303 29.3978 12.7863 29.9689 13.0385 30.6067C13.2907 31.2446 13.4168 31.8972 13.4168 32.5647C13.4168 33.4696 13.2017 34.3299 12.7715 35.1457C12.3562 35.9616 11.7703 36.6291 11.0138 37.1482C10.2721 37.6526 9.3895 37.9047 8.366 37.9047H5.162V43H1.513ZM5.162 34.723H8.1435C8.42533 34.723 8.68492 34.6414 8.92225 34.4782C9.15958 34.3151 9.35242 34.0703 9.50075 33.744C9.64908 33.4177 9.72325 33.0172 9.72325 32.5425C9.72325 32.053 9.63425 31.6525 9.45625 31.341C9.29308 31.0147 9.078 30.7773 8.811 30.629C8.55883 30.4807 8.29183 30.4065 8.01 30.4065H5.162V34.723ZM26.4785 39.796V43H15.3758V27.2025H26.2783V30.4065H19.0248V33.477H25.2548V36.4362H19.0248V39.796H26.4785ZM35.3544 43.1335C34.1677 43.1335 33.0923 42.911 32.1281 42.466C31.1788 42.0062 30.3555 41.398 29.6584 40.6415C28.976 39.8702 28.4495 39.0098 28.0786 38.0605C27.7078 37.0963 27.5224 36.1025 27.5224 35.079C27.5224 34.0258 27.7152 33.0246 28.1009 32.0752C28.5014 31.1259 29.0502 30.2804 29.7474 29.5387C30.4594 28.7822 31.2975 28.1889 32.2616 27.7587C33.2258 27.3286 34.279 27.1135 35.4211 27.1135C36.593 27.1135 37.6535 27.3434 38.6029 27.8032C39.567 28.2482 40.3903 28.8564 41.0726 29.6277C41.7698 30.3991 42.3038 31.2668 42.6746 32.231C43.0455 33.1803 43.2309 34.1519 43.2309 35.1457C43.2309 36.1989 43.038 37.2002 42.6524 38.1495C42.2667 39.0988 41.7179 39.9517 41.0059 40.7082C40.2939 41.4499 39.4558 42.0432 38.4916 42.4882C37.5423 42.9184 36.4965 43.1335 35.3544 43.1335ZM31.2381 35.1235C31.2381 35.7317 31.3271 36.325 31.5051 36.9035C31.6831 37.4672 31.9427 37.9715 32.2839 38.4165C32.6399 38.8615 33.0775 39.2175 33.5966 39.4845C34.1158 39.7515 34.7091 39.885 35.3766 39.885C36.0738 39.885 36.682 39.7515 37.2011 39.4845C37.7203 39.2027 38.1505 38.8318 38.4916 38.372C38.8328 37.9122 39.085 37.4004 39.2481 36.8367C39.4261 36.2582 39.5151 35.6723 39.5151 35.079C39.5151 34.4708 39.4261 33.8849 39.2481 33.3212C39.0701 32.7576 38.8031 32.2532 38.4471 31.8082C38.0911 31.3484 37.6535 30.9924 37.1344 30.7403C36.6152 30.4881 36.0293 30.362 35.3766 30.362C34.6795 30.362 34.0713 30.4955 33.5521 30.7625C33.0478 31.0295 32.6176 31.3929 32.2616 31.8527C31.9205 32.2977 31.6609 32.8095 31.4829 33.388C31.3197 33.9517 31.2381 34.5302 31.2381 35.1235ZM45.3394 43V27.2025H52.0812C52.8377 27.2025 53.5274 27.3582 54.1504 27.6697C54.7882 27.9664 55.3371 28.3743 55.7969 28.8935C56.2567 29.3978 56.6127 29.9689 56.8649 30.6067C57.1171 31.2446 57.2432 31.8972 57.2432 32.5647C57.2432 33.4696 57.0281 34.3299 56.5979 35.1457C56.1826 35.9616 55.5967 36.6291 54.8402 37.1482C54.0985 37.6526 53.2159 37.9047 52.1924 37.9047H48.9884V43H45.3394ZM48.9884 34.723H51.9699C52.2517 34.723 52.5113 34.6414 52.7487 34.4782C52.986 34.3151 53.1788 34.0703 53.3272 33.744C53.4755 33.4177 53.5497 33.0172 53.5497 32.5425C53.5497 32.053 53.4607 31.6525 53.2827 31.341C53.1195 31.0147 52.9044 30.7773 52.6374 30.629C52.3852 30.4807 52.1182 30.4065 51.8364 30.4065H48.9884V34.723ZM59.2022 43V27.2025H62.8512V39.796H70.5052V43H59.2022ZM83.3203 39.796V43H72.2176V27.2025H83.1201V30.4065H75.8666V33.477H82.0966V36.4362H75.8666V39.796H83.3203Z" fill="url(#paint0_linear_95_237)"/>
<path d="M170.11 44.7025V60.5H166.461V54.0252H160.165V60.5H156.516V44.7025H160.165V50.8212H166.461V44.7025H170.11ZM173.138 60.5V44.7025H176.787V60.5H173.138ZM179.809 60.5V44.7025H186.929C187.67 44.7025 188.353 44.8582 188.976 45.1697C189.613 45.4664 190.162 45.8743 190.622 46.3935C191.082 46.8978 191.438 47.4689 191.69 48.1067C191.957 48.7446 192.091 49.3898 192.091 50.0425C192.091 50.6952 191.987 51.3182 191.779 51.9115C191.571 52.49 191.275 53.0166 190.889 53.4912C190.503 53.9511 190.044 54.3293 189.51 54.626L192.981 60.5H188.953L185.927 55.4047H183.458V60.5H179.809ZM183.458 52.223H186.795C187.092 52.223 187.351 52.134 187.574 51.956C187.811 51.7632 188.004 51.5036 188.152 51.1772C188.301 50.8509 188.375 50.4727 188.375 50.0425C188.375 49.6123 188.286 49.2415 188.108 48.93C187.945 48.6037 187.737 48.3515 187.485 48.1735C187.233 47.9955 186.966 47.9065 186.684 47.9065H183.458V52.223ZM205.817 57.296V60.5H194.714V44.7025H205.617V47.9065H198.363V50.977H204.593V53.9362H198.363V57.296H205.817ZM225.687 60.5V51.0882L222.283 57.9412H220.28L216.876 51.0882V60.5H213.227V44.7025H217.188L221.282 52.9572L225.398 44.7025H229.336V60.5H225.687ZM243.473 57.296V60.5H232.37V44.7025H243.272V47.9065H236.019V50.977H242.249V53.9362H236.019V57.296H243.473ZM245.378 60.5V56.8732H248.293V60.5H245.378Z" fill="url(#paint1_linear_95_237)"/>
<defs>
<linearGradient id="paint0_linear_95_237" x1="0" y1="22.25" x2="182.25" y2="22.25" gradientUnits="userSpaceOnUse">
<stop stop-color="#CCCCCC"/>
<stop offset="1" stop-color="#666666"/>
</linearGradient>
<linearGradient id="paint1_linear_95_237" x1="67.25" y1="52.75" x2="249.5" y2="52.75" gradientUnits="userSpaceOnUse">
<stop stop-color="#CCCCCC"/>
<stop offset="1" stop-color="#666666"/>
</linearGradient>
</defs>
</svg>
