<svg width="44" height="44" viewBox="0 0 44 44" fill="none" xmlns="http://www.w3.org/2000/svg">
<path d="M41.5797 2.42034C39.9654 0.806046 38.0229 0 35.7501 0H8.24986C5.97708 0 4.03464 0.806046 2.42034 2.42034C0.806046 4.03464 0 5.97708 0 8.24986V35.7501C0 38.0229 0.806046 39.9654 2.42034 41.5797C4.03464 43.194 5.97708 44 8.24986 44H14.6674C15.0858 44 15.4008 43.9846 15.6122 43.956C15.8582 43.9066 16.0802 43.7754 16.2421 43.5838C16.4513 43.3635 16.557 43.0442 16.557 42.6258L16.5416 40.6767C16.5328 39.4346 16.5284 38.4524 16.5284 37.7256L15.8677 37.8401C15.4492 37.9172 14.9207 37.9502 14.2798 37.9414C13.6118 37.9291 12.9459 37.8621 12.2889 37.741C11.5895 37.6119 10.931 37.3174 10.3685 36.8821C9.77935 36.4364 9.33995 35.8219 9.10876 35.1203L8.82246 34.4596C8.58115 33.9384 8.27799 33.4482 7.91952 32.9995C7.50989 32.4643 7.09365 32.1031 6.67301 31.9115L6.4748 31.7684C6.33659 31.6694 6.21088 31.554 6.10041 31.4248C5.9949 31.3049 5.90803 31.1698 5.84274 31.024C5.78548 30.8896 5.83393 30.7795 5.98589 30.6936C6.14005 30.6055 6.41534 30.5637 6.81836 30.5637L7.39096 30.6518C7.77196 30.7267 8.24546 30.9557 8.80705 31.3367C9.37538 31.7242 9.85012 32.2335 10.1967 32.8277C10.6372 33.6095 11.1657 34.2063 11.7868 34.6181C12.4078 35.0278 13.0333 35.2348 13.6631 35.2348C14.293 35.2348 14.837 35.1863 15.2973 35.0916C15.7424 34.9996 16.1749 34.8547 16.5856 34.66C16.7574 33.3827 17.2243 32.396 17.9885 31.7089C16.9983 31.6118 16.0169 31.4395 15.0528 31.1936C14.112 30.9351 13.2071 30.56 12.3594 30.077C11.4724 29.5941 10.6889 28.9416 10.0536 28.1566C9.44352 27.3924 8.94139 26.3903 8.54938 25.1504C8.15957 23.9083 7.96356 22.4746 7.96356 20.8515C7.96356 18.5413 8.71675 16.5746 10.2253 14.9493C9.5206 13.2139 9.58667 11.2648 10.4257 9.10876C10.9807 8.93478 11.8022 9.06472 12.8901 9.49417C13.9781 9.92362 14.7753 10.2914 15.2818 10.5953C15.7884 10.9036 16.1936 11.1613 16.4997 11.3705C18.2902 10.8723 20.1404 10.6218 21.9989 10.6262C23.8907 10.6262 25.723 10.875 27.5003 11.3705L28.5882 10.6834C29.4251 10.181 30.3078 9.75916 31.2244 9.42369C32.2375 9.04049 33.0083 8.93698 33.5456 9.10876C34.4045 11.267 34.4794 13.2139 33.7725 14.9515C35.281 16.5746 36.0364 18.5413 36.0364 20.8537C36.0364 22.4768 35.8404 23.9149 35.4484 25.1636C35.0586 26.4145 34.5521 27.4166 33.931 28.172C33.2845 28.9469 32.4977 29.5932 31.612 30.077C30.687 30.5923 29.7885 30.9645 28.9186 31.1936C27.9546 31.4403 26.9732 31.6134 25.9829 31.7111C26.9739 32.57 27.4716 33.9244 27.4716 35.7766V42.6258C27.4716 42.9495 27.5179 43.2116 27.6148 43.412C27.6593 43.5085 27.7228 43.5951 27.8015 43.6667C27.8802 43.7382 27.9725 43.7931 28.0729 43.8282C28.2843 43.9031 28.4693 43.9516 28.6323 43.9692C28.7952 43.9912 29.0287 43.9978 29.3326 43.9978H35.7501C38.0229 43.9978 39.9654 43.1918 41.5797 41.5775C43.1918 39.9654 44 38.0207 44 35.7479V8.24986C44 5.97708 43.194 4.03464 41.5797 2.42034Z" fill="url(#paint0_linear_89_233)"/>
<defs>
<linearGradient id="paint0_linear_89_233" x1="7.5" y1="22" x2="44" y2="22" gradientUnits="userSpaceOnUse">
<stop stop-color="#CCCCCC"/>
<stop offset="1" stop-color="#666666"/>
</linearGradient>
</defs>
</svg>
