<svg width="12" height="15" viewBox="0 0 12 15" fill="none" xmlns="http://www.w3.org/2000/svg">
<path d="M6.20775 8.52488C5.68728 8.52488 5.17849 8.37054 4.74573 8.08138C4.31296 7.79222 3.97567 7.38122 3.77649 6.90036C3.57731 6.4195 3.5252 5.89038 3.62674 5.3799C3.72828 4.86943 3.97891 4.40053 4.34695 4.03249C4.71498 3.66446 5.18388 3.41383 5.69436 3.31229C6.20483 3.21074 6.73396 3.26286 7.21482 3.46204C7.69567 3.66122 8.10667 3.99851 8.39583 4.43127C8.68499 4.86403 8.83933 5.37282 8.83933 5.8933C8.8385 6.59098 8.56097 7.25985 8.06764 7.75319C7.5743 8.24652 6.90544 8.52404 6.20775 8.52488ZM6.20775 4.31435C5.89547 4.31435 5.59019 4.40696 5.33054 4.58045C5.07088 4.75395 4.8685 5.00055 4.749 5.28906C4.62949 5.57758 4.59822 5.89505 4.65914 6.20134C4.72007 6.50762 4.87045 6.78897 5.09127 7.00979C5.31209 7.23061 5.59343 7.38099 5.89972 7.44191C6.206 7.50283 6.52348 7.47156 6.81199 7.35206C7.10051 7.23255 7.3471 7.03017 7.5206 6.77052C7.6941 6.51086 7.7867 6.20559 7.7867 5.8933C7.78628 5.47467 7.6198 5.0733 7.32378 4.77728C7.02776 4.48126 6.62639 4.31477 6.20775 4.31435Z" fill="url(#paint0_linear_70_726)"/>
<path d="M6.2094 14.8404L1.7694 9.60405C1.70771 9.52542 1.64665 9.44629 1.58624 9.36668C0.827813 8.36761 0.41809 7.14732 0.419928 5.89299C0.419928 4.35753 1.02989 2.88495 2.11563 1.79921C3.20136 0.713477 4.67394 0.103516 6.2094 0.103516C7.74487 0.103516 9.21744 0.713477 10.3032 1.79921C11.3889 2.88495 11.9989 4.35753 11.9989 5.89299C12.0007 7.14675 11.5912 8.36649 10.8331 9.3651L10.8326 9.36668C10.8326 9.36668 10.6747 9.57405 10.651 9.60194L6.2094 14.8404ZM2.42677 8.73247C2.42677 8.73247 2.5494 8.89457 2.5773 8.92931L6.2094 13.213L9.84625 8.92352C9.86941 8.89457 9.99256 8.73141 9.99309 8.73089C10.6126 7.91463 10.9475 6.91774 10.9462 5.89299C10.9462 4.6367 10.4472 3.43187 9.55886 2.54354C8.67053 1.65521 7.46569 1.15615 6.2094 1.15615C4.95311 1.15615 3.74828 1.65521 2.85995 2.54354C1.97162 3.43187 1.47256 4.6367 1.47256 5.89299C1.47146 6.91838 1.80665 7.91584 2.42677 8.73247Z" fill="url(#paint1_linear_70_726)"/>
<defs>
<linearGradient id="paint0_linear_70_726" x1="7.64316" y1="3.26172" x2="4.72903" y2="10.0613" gradientUnits="userSpaceOnUse">
<stop stop-color="#DCE3F4"/>
<stop offset="0.22" stop-color="#97B2EF"/>
<stop offset="0.505" stop-color="#8774F5"/>
<stop offset="1" stop-color="#E17191"/>
</linearGradient>
<linearGradient id="paint1_linear_70_726" x1="9.36729" y1="0.103516" x2="-0.106393" y2="17.4719" gradientUnits="userSpaceOnUse">
<stop stop-color="#DCE3F4"/>
<stop offset="0.22" stop-color="#97B2EF"/>
<stop offset="0.505" stop-color="#8774F5"/>
<stop offset="1" stop-color="#E17191"/>
</linearGradient>
</defs>
</svg>
